<?xml version="1.0" encoding="utf-8"?>
<!-- Generator: Adobe Illustrator 27.8.1, SVG Export Plug-In . SVG Version: 6.00 Build 0)  -->
<svg version="1.1" id="Layer_1" xmlns="http://www.w3.org/2000/svg" xmlns:xlink="http://www.w3.org/1999/xlink" x="0px" y="0px"
	 viewBox="0 0 1000 1000" style="enable-background:new 0 0 1000 1000;" xml:space="preserve">
<style type="text/css">
	.st0{fill:#FFFFFF;}
	.st1{fill:#010101;}
	.st2{fill:#232321;}
	.st3{fill:#E7E7E7;}
	.st4{fill:#EAEAEA;}
	.st5{fill:#E9E9E9;}
	.st6{fill:#E6E6E6;}
	.st7{fill:#EDEDED;}
	.st8{fill:#D6D6D6;}
	.st9{fill:#C8C8C8;}
	.st10{fill:#F8F8F8;}
	.st11{fill:#FEFEFE;}
	.st12{fill:#070707;}
	.st13{fill:#090909;}
	.st14{fill:#0E0E0E;}
	.st15{fill:#1E1E1D;}
	.st16{fill:#20201F;}
	.st17{fill:#1C1C1A;}
	.st18{fill:#1F1F1D;}
	.st19{fill:#2D2D2B;}
	.st20{fill:#2F2F2D;}
	.st21{fill:#FDFDFD;}
</style>
<path class="st0" d="M0,337C0,224.3,0,112.2,0,0c333.3,0,666.7,0,1000,0c0,333.3,0,666.7,0,1000c-333.3,0-666.7,0-1000,0
	C0,779.2,0,558.3,0,337 M51,543.9c0,134.7,0,269.3,0,404.1c1.6,0,2.4,0,3.2,0c132.8,0,265.5,0,398.3,0c1.2,0,2.3-0.1,4.4,0
	c28-0.1,56.1-0.1,85,0c135,0,270,0,405.1,0c0-1.6,0-2.4,0-3.2c0-134.8,0-269.5,0-404.3c0-1.2-0.1-2.3,0-4.4c-0.1-24.4-0.1-48.7,0-74
	c0-136.7,0-273.3,0-410.1c-1.5,0-2.4,0-3.2,0c-133.1,0-266.2,0-399.3,0c-1.2,0-2.3,0.1-4.4,0c-28,0.1-56.1,0.1-85,0
	C320.4,52,185.7,52,51,52c0,1.6,0,2.4,0,3.2c0,132.8,0,265.5,0,398.3c0,1.2,0.1,2.3,0,4.4C51,486.3,51.1,514.6,51,543.9z"/>
<path class="st1" d="M798.7,827.8c-22.9,20.8-47.3,39.1-73.7,54.8c-29.7,17.7-61.1,31.6-94,41.9c-22.8,7.2-46,12.9-69.8,15.4
	c-18.8,2-37.6,3.2-56.5,4c-28.9,1.3-57.5-1.6-85.9-6.7c-46.2-8.3-89.8-23.7-131.1-45.9c-27.6-14.8-53.5-32.2-76.9-53.1
	c-13.3-11.8-26.5-23.8-38.6-36.8c-24.1-26-44.8-54.6-62-85.7c-13.5-24.5-25-50-33.6-76.6c-8.2-25.2-14.8-50.9-17.6-77.4
	c-1.8-16.6-3.1-33.3-3.9-50c-0.6-12.7-0.7-25.5,0.1-38.2c0.9-14,2.9-28,4.7-41.9c3.2-24.6,9.3-48.5,17.1-72
	c16.1-48.7,40-93.6,72-133.6c14.9-18.6,31.3-36.3,48.6-52.7c25.7-24.4,54.5-44.9,85.7-62.1c24.6-13.5,50-24.9,76.6-33.6
	c25.2-8.2,50.9-14.9,77.4-17.6c17.6-1.8,35.3-3,53-3.9c10.1-0.5,20.2-0.5,30.3,0c25,1.1,49.7,4.5,74.2,9.9
	c36.7,8,71.8,20.7,105.2,37.7c27.9,14.2,54.3,30.9,78.2,51.2c12.1,10.3,24.5,20.5,35.6,31.8c29,29.5,53.8,62.2,73.8,98.6
	c19.9,36,34.7,74,43.7,114.1c3.8,16.9,6,34.2,8.5,51.4c3.2,21.8,4,43.7,2.8,65.6c-1.2,20.3-3.9,40.5-6.7,60.6
	c-3.3,23.9-9.9,47-17.9,69.8c-15.7,44.8-37.6,86.2-67,123.4c-12.6,16-26.6,31-40.1,46.2C807.4,820.4,803,823.8,798.7,827.8
	 M112.1,543c0.2,0.1,0.4,0.3,0.5,1.1c-0.1,0.6-0.3,1.2-0.4,1.8c1.2-0.7,2.3-1.3,3.4-1.9c0.8,0.6,1.7,1.4,2.5,2.1
	c0.2-0.2,0.5-0.4,0.7-0.6c-0.5-1.1-1-2.2-1.5-3.3c1.2-0.5,2.4-1.1,4.9-2.2c-2.7-0.2-3.9-0.3-5.1-0.4c0.1-1.3,0.3-2.5,0.4-3.7
	c-0.3-0.1-0.6-0.2-0.9-0.3c-0.7,1-1.4,2.1-2,3c-1.1-1-2-1.7-2.1-1.8c-1.2,2-2.1,3.6-3.3,5.5C110,542.4,110.8,542.4,112.1,543
	 M848.6,333.1c-0.8-1.8-1.4-3.8-2.5-5.4c-2.9-4.2-7-6.3-12-5.4c-5,0.9-9.6,2.9-10.9,9.6c-0.3,5.2,1.7,9.4,5.9,12.4
	c0.8,0.6,2.6-0.3,4.6-1c0.8,0.3,1.5,0.7,2.7,1.5C844.6,346.1,849.3,342,848.6,333.1 M429.9,865.9c-5.2,5.1-5.3,11.4-0.2,15.3
	c4.3,3.3,10.8,3.6,15.4,0.7c4.4-2.8,7-9.1,5.8-14.3c-1.5-6.3-10.5-10.2-15.3-6.3c-0.8,0-1.7,0-2.5,0c0,0.2,0.1,0.3,0.1,0.5
	c1-0.2,1.9-0.5,3.6-1.1c7.2,0.3,11.6,3.3,12.3,8.4c0.7,5.4-2.2,10.6-7.1,12.4c-4.5,1.7-10.2,0.2-12.7-3.2c-2.5-3.4-1.8-7.2,2.7-11.7
	c2.7-0.5,3.5,0.7,2.5,3.1c-0.8,2.1-1.8,4.1-2.6,5.9c1.9,0.6,3.5,1.2,5.1,1.6c3.4,0.9,6.3-0.5,7.2-3.6c0.6-1.9-0.1-6.1-1-6.3
	C439.2,866.1,434.9,866.1,429.9,865.9 M808.6,729.5c-7.4,0.1-14.8-1.7-22.9,0c7.6,7.8,17.6,14.5,20.8,13.5c-5-3.9-9.8-7.6-15.5-12
	c5.4,0.3,9.4,0.9,13.5,0.8c3.8-0.1,8,2.1,11.9-1.8c-6.5-5-12.6-9.6-18.7-14.3c-0.4,0.5-0.9,1.1-1.3,1.6c4.6,3.9,9.1,7.8,13.4,11.9
	C809.8,729.2,809.5,729.5,808.6,729.5 M758.8,782.3c-3.8-3.7-7.5-7.5-11.3-11.2c-0.5,0.5-1,0.9-1.5,1.4c4.9,6,10.6,11.3,17.1,17.8
	c3-9.3-5-15-5.3-22.6c5.1,2.4,10,4.6,14.7,7.1c2.7,1.4,4.5,1.4,5.2-0.1c-5.7-6.1-10.9-11.7-16.1-17.3c-0.2,0.2-0.5,0.4-0.7,0.6
	c3.5,3.9,7,7.8,10.1,12.2c-0.1,0.2-0.2,0.4-1.1,0.5c-4.1-1.9-8.1-3.9-12.2-5.7c-0.9-0.4-2.1-0.4-3.2-0.6c0.1,1.2-0.2,2.5,0.2,3.6
	c1.7,4.7,3.6,9.2,5.1,14.3C759.6,782.4,759.5,782.6,758.8,782.3 M167,305.8c4.4,2.4,8.9,4.7,13.3,7.1c0.4-0.7,0.7-1.4,1.1-2.1
	c-6.7-3.8-13.4-7.5-20.1-11.3c-0.5,0.4-1,0.8-1.6,1.2c0.4,7.9,9,11.3,11.9,18.4c-5.8-0.9-11.3-1.5-16.6-2.7
	c-3.4-0.7-4.4,0.6-4.9,3.4c14.5,9.1,18.5,10.9,21.3,9.3c-5.1-2.9-10.1-5.7-15-8.5c0.1-0.3,0.1-0.6,0.2-0.8
	c6.4,0.7,12.8,1.4,19.2,2.1c0.1-0.5,0.2-1,0.4-1.5c-3.7-4.6-7.4-9.3-10.4-14.3C166,305.9,166.2,305.8,167,305.8 M672.2,155.2
	c0.2,0.1,0.3,0.2,0.3,1c-2.2,4.8-4.5,9.6-6.7,14.5c0.5,0.3,1.1,0.5,1.6,0.8c4.7-6.1,6.5-13.8,10.5-20.5c-5.6-4.1-6.9,1.8-9.5,3.7
	c-3.2,2.4-5.9,5.5-9.4,8.8c0.5-6.4,0.8-11.9,1.5-17.3c0.4-3.1-0.3-4.7-3.9-4.8c-3.1,6.8-6.3,13.7-9.5,20.6c0.6,0.4,1.3,0.7,1.9,1.1
	c2.5-5.1,5.1-10.2,7.6-15.3c0.3,0.1,0.6,0.2,1,0.3c-0.4,6.3-0.7,12.7-1.1,19c0.5,0.1,1,0.2,1.5,0.4
	C662.6,163.1,667.2,159,672.2,155.2 M391,130.9c3.4,4.7,6.9,9.4,10.3,14.1c0.5-0.2,1.1-0.3,1.6-0.5c0.8-6.3,1.6-12.6,2.4-18.9
	c0.3,0,0.7-0.1,1-0.1c1.7,5.5,3.3,11,5,16.5c0.7-0.2,1.4-0.4,2-0.6c-1.9-7.4-3.9-14.9-6.2-23.9c-7.5,6.7-3,15.6-6.6,22.4
	c-3.3-4.7-6.6-9.1-9.5-13.6c-1.8-2.8-3.6-2.9-6.1-0.8c2.1,7.3,4.2,14.6,6.2,21.8c0.7-0.2,1.4-0.4,2-0.5c-1.2-5.1-2.5-10.3-3.2-15.9
	C390.2,130.8,390.4,130.6,391,130.9 M186.8,441.2c-1.6,11.6-3.9,23.2-4.6,34.9c-0.8,13.2-0.6,26.5-0.1,39.8
	c0.5,11.6,1.3,23.2,3.1,34.6c5.7,34.5,16.5,67.2,33,98.2c19.2,36.1,44.3,67.2,75.5,93.7c23.8,20.2,49.7,36.7,78.3,48.9
	c44.2,18.9,90.3,28.6,138.6,25.6c15.8-1,31.7-2.3,47.3-5c42.3-7.3,81.2-23.7,116.9-47.5c25.9-17.2,48.6-38,68.5-62
	c19.8-23.9,35.5-50.1,47.8-78.5c14.8-34.1,22.7-70,24.8-107c1.2-21.4,0.3-42.9-3-64.1c-4.3-28.1-12-55.4-23.8-81.4
	c-20.5-45.6-49.9-84.5-88.6-116.4c-29.3-24.2-61.7-42.7-97.6-55c-37.3-12.8-75.7-19.4-115.3-16.9c-11.9,0.7-23.8,1.5-35.6,3
	c-33.1,4.2-64.4,14.5-94.2,29.2c-23.1,11.4-44.5,25.7-64.3,42.5c-16.9,14.4-32.1,30.3-45.8,47.7c-15.8,20.1-28.7,41.9-39.1,65.3
	C198.8,393.1,191.3,416.3,186.8,441.2 M214.8,752.3c-1.7,1.3-3.4,2.7-5,4c-0.2-0.3-0.5-0.6-0.7-0.8c3-5.4,6-10.8,8.9-16.2
	c-0.3-0.5-0.5-1-0.8-1.4c-6.2,1.9-12.4,3.8-18.6,5.7c-0.1-0.3-0.2-0.6-0.3-0.9c4.3-3.7,8.6-7.4,13.2-11.3
	c-3.4-0.8-6.2,1.2-20.2,14.1c8.6,4.6,14.8-4.3,22.3-3.1c-2.7,4.7-5.1,9.4-8,13.9c-1.7,2.7-1.5,4.5,1.7,6.1c5.7-5,11.5-10,17.2-15
	c-0.5-0.5-0.9-1.1-1.4-1.6C220.6,747.7,218,749.8,214.8,752.3 M494.2,885.8c-1.9-5.9-3.9-11.7-5.8-17.6c-0.6-0.1-1.1-0.1-1.7-0.2
	c-2.8,6-5.5,12-8.3,18c-0.3-0.1-0.6-0.2-0.9-0.3c0-5.9,0-11.8,0-17.7c-0.6,0-1.2,0-1.7,0c-0.3,7.7-0.7,15.3-1,23.2
	c6.8,1.2,5.7-4.6,7.4-7.5c1.9-3.3,3.2-6.9,5.1-11.3c2,6.3,3.9,11.3,5.2,16.4c0.8,3.2,2.4,3.9,5.8,3c0-7.7,0-15.2,0-22.8
	c-0.5-0.1-1-0.1-1.4-0.2c-0.2,1.2-0.6,2.5-0.7,3.7c-0.2,4.5-0.3,9-0.4,13.4C495.7,886.1,495,886.3,494.2,885.8 M865.6,555
	c-1.2,0.1-2.4,0.3-3.5,0.4c0,0.6,0.1,1.1,0.1,1.7c7.6,0.9,15.2,1.8,22.7,2.7c0.3-0.6,0.7-1.1,1-1.7c-3.2-7.4-12.6-6.8-17.9-12.4
	c5.5-1.3,10.8-2.6,16.1-3.8c2.8-0.6,4.5-1.9,3.2-5.3c-7.5-0.5-15-2.4-22.5-2c-0.1,0.6-0.1,1.2-0.2,1.8c5.8,0.8,11.5,1.6,17.3,2.4
	c-4,1.9-7.8,2.8-11.6,3.9c-2.3,0.7-4.5,1.6-6.7,2.5c1.9,1.5,3.7,3.3,5.8,4.6c3.5,2.1,7.2,3.9,10.9,5.8c-0.2,0.5-0.5,0.9-0.7,1.4
	C875.2,556.4,870.9,555.7,865.6,555 M864.8,385.3c6.5-4.8,6.5-4.8,4.5-8.8c-7.2,2.2-14.4,4.5-21.6,6.7c0.2,0.7,0.4,1.4,0.6,2.1
	c5.5-1.5,10.9-3,16.4-4.5c0.1,0.3,0.3,0.6,0.4,0.9c-4.9,4-9.9,8-14.8,12c0.3,0.4,0.6,0.9,0.8,1.3c6.5,0.6,13.1,1.2,19.6,1.9
	c0,0.3,0,0.5-0.1,0.8c-5.7,1.8-11.4,3.7-17.1,5.5c0.2,0.7,0.5,1.4,0.7,2.1c7.3-2.1,14.7-4.3,22-6.4c0.2-0.5,0.4-0.9,0.6-1.4
	c-1.4-1-2.8-2.7-4.3-2.9c-5.6-0.8-11.3-1-18-1.6C858.4,390.1,861.3,387.9,864.8,385.3 M138.5,374c-1.6-0.7-3.2-1.3-5.4-2.2
	c8.1-3.3,16.4-3.1,23.3-7c0-0.5-0.1-1-0.1-1.5c-7.3-2.7-14.5-5.4-21.8-8.1c-0.3,0.7-0.6,1.3-0.8,2c5.5,2.3,11,4.6,17.5,7.2
	c-5.2,1.2-9,2.2-12.9,3.1c-8.8,2.1-8.8,2.1-10,5.4c7.1,2.7,14.3,5.4,21.4,8c0.3-0.7,0.6-1.3,0.9-2
	C146.8,377.4,143.1,375.8,138.5,374 M595.2,126.2c2.2,6.1,4.4,12.1,6.7,18.2c0.5,1.2,1.6,2.1,3.2,4.2c2.3-8.8,4.2-16.2,6.2-23.6
	c-0.7-0.2-1.4-0.4-2.1-0.6c-1.7,5.7-3.3,11.3-5.1,17.4c-4.4-7.2-4-16-10.6-22.8c-2.3,8.7-4.3,16.2-6.3,23.7c0.7,0.2,1.4,0.4,2.1,0.6
	C590.9,137.5,592.7,131.7,595.2,126.2 M282.9,806.4c1-1.7,2.1-3.3,3.1-5c-0.5-0.4-1-0.7-1.5-1.1c-3.7,4.9-7.5,9.7-11.5,14.9
	c-0.9-8.5,1.1-16.5-0.7-24.2c-0.5,0-1-0.1-1.5-0.1c-4.5,6.2-8.9,12.4-13.4,18.6c0.4,0.4,0.9,0.7,1.3,1.1c5.1-3.4,6.8-10.1,11.4-13.5
	c0,6.4-0.1,12.7,0.1,19c0,1.4,0.9,2.8,1.7,5.3C276.1,815.8,279.3,811.4,282.9,806.4 M303.1,812.3c-7.3-3.5-12.7-2-16.5,4.4
	c-3.5,5.9-2.4,11.8,2.7,15.4c5.3,3.8,11.2,2.9,15.4-2.2C309.5,824.1,309.1,818,303.1,812.3 M840.9,366.3c1.5,1.9,3,3.8,4.5,5.6
	c-0.3,0.5-0.8,1.4-1.4,2.3c0.3,0.3,0.5,0.6,0.8,0.9c3.3-1.3,6.5-2.6,10.1-4c-1.3-3.1-2.4-5.7-3.4-8.2c-0.5,0.2-1,0.3-1.5,0.5
	c0.5,2.1,0.9,4.1,1.4,6.2c-5.4,0.5-8.4-1.7-8.9-6.4c-0.5-4.9,4.4-9.9,10.6-9.5c11.5,0.8,9.2,8.1,5.1,16.1c5.7-2.9,6.7-6.6,5.5-11
	c-1.7-6.2-7.2-9.1-13.7-7.4C842.4,353.3,839.1,358.2,840.9,366.3 M303,173.6c5.4,9.6,5.4,9.6,8,8.9c-1.5-2.7-2.9-5.4-4.2-7.8
	c6.2-7.3,11.2-1.3,16.4,2c0.3-0.7,0.5-1.4,0.8-2.2c-3.1-2.2-6.3-4.5-9.5-6.8c2.3-2.5,2.2-6.1-0.7-8.2c-1.9-1.4-5.6-1.1-8.2-0.4
	c-2.8,0.7-5.2,2.7-8.1,4.4C299.3,166.9,301,169.9,303,173.6 M581.4,128.9c0.9-5-0.1-9.3-4.6-12.2c-5.9-3.8-13.1-1.9-16.2,4.1
	c-3.6,7-1.3,14.7,5.1,17.3C572.8,140.9,578.6,137.7,581.4,128.9 M125.3,406.4c8,3.6,14.4,2.3,17.4-3.6c2.9-5.5,1.4-11.7-3.6-14.9
	c-5.5-3.6-13.3-2.8-16.7,1.8C118.4,394.8,119.3,401.2,125.3,406.4 M526.6,869.8c-5.8-3.4-11.7-3.1-15.4,0.9
	c-3.6,3.8-4.1,10.9-1.1,15.8c2.6,4.3,7.9,6.1,13.1,4.4C531.1,888.5,533.1,878.4,526.6,869.8 M138.8,635.7c-2-0.1-5.4,0.3-5.8-0.6
	c-0.9-2.3-0.8-5.1-0.6-7.7c0.1-1.2,1.3-2.3,2-3.5c-6.5,3.5-7.3,9.6-2.5,13.5c1.5,1.3,4.5,2,6.2,1.4c1.7-0.6,3.2-3.1,3.7-5.1
	c0.5-2.3-0.5-5-0.2-7.4c0.2-1.5,1.5-4,2.4-4.1c1.6-0.1,4.5,1,4.7,2.2c0.6,2.6,0.2,5.5-0.2,8.2c-0.1,1-1.1,1.9-2.3,3.7
	c7-2.5,8.4-9.2,3.7-14.3c-1.5-1.6-4.9-2.8-6.8-2.3c-1.8,0.5-3.6,3.5-4.1,5.7C138.5,628.5,139.1,631.7,138.8,635.7 M884,525.9
	c6-3.8,7.9-9.6,5.1-15.2c-2.6-5.2-9.3-7.6-15.5-5.6c-5.3,1.7-8.4,7.3-7.3,13.1C867.7,525.3,874.6,528.5,884,525.9 M822.7,695.5
	c-7.6-3-13.6-0.7-16.2,6.2c-2.2,6,1.6,12.8,8.5,15.2c6.3,2.1,12.4-1.1,14.5-7.7C831.1,704.2,829.3,700.2,822.7,695.5 M117.7,438.8
	c16,2.5,16,2.5,17.1,0.6c-3.1-0.7-6.1-1.3-8.8-1.9c-1.7-9.6,6.5-9.2,12.2-11.3c-0.3-0.6-0.7-1.2-1-1.8c-3.8,0.9-7.5,1.8-11.4,2.8
	c-0.7-3.2-3.5-5.8-6.9-4.7c-2.4,0.8-4.3,4-5.5,6.6c-1.1,2.4-1.1,5.4-1.6,8.3C113.6,437.9,115.2,438.3,117.7,438.8 M659.4,856.7
	c0.1-2.5,1.2-5.7,0.1-7.2c-1.2-1.6-4.5-1.8-7-2.3c-1-0.2-2.2,0.5-3.4,0.6c-2.6,0.3-6.1,1.2-6.2-2.6c0-1.9,2.4-4.5,4.4-5.4
	c1.6-0.7,4.2,0.6,6.3,1.1c1,0.2,1.9,0.5,4.1,1c-5.3-6.3-12.4-6.6-16.1-1.3c-1.2,1.7-1.6,4.9-0.8,6.8c0.7,1.6,3.4,2.9,5.4,3.3
	c2,0.4,4.3-0.9,6.4-0.8c1.8,0.1,3.6,1.3,5.4,2c-1.2,1.9-2,4.7-3.8,5.5c-1.6,0.7-4.1-0.7-6.3-1.1c-0.9-0.2-1.9-0.5-4-1.1
	C649.3,861.7,652.7,861.9,659.4,856.7 M260.7,218.1c2.3-3,2.8-6.1,0.2-9.1c-2.8-3.3-5.9-1.9-9-0.3c-1.5,0.8-2.9,1.9-4.5,2.1
	c-1.4,0.2-3.8-0.2-4.2-1.1c-0.7-1.3-0.6-4.2,0.2-4.7c2.1-1.3,4.8-1.8,7.4-2.4c1-0.2,2.1,0.2,3.2,0.4c-2.1-3.6-5.1-4.9-7.9-2.9
	c-2.6,1.9-5.2,4.8-6,7.8c-1.1,3.9,3.1,6.9,7,5.7c2.7-0.8,5.1-2.5,7.8-3.3c1.3-0.4,3.7,0.2,4.2,1.1c0.7,1.3,0.7,3.7-0.1,4.9
	c-2,2.9-4.7,4.8-8.5,2.9c-0.8-0.4-2-0.1-3.5-0.1C251.6,223.6,254.4,223.4,260.7,218.1 M820.8,297.1c6.9-0.3,9.3-4.3,6-10.1
	c-1.5-2.7-3.4-5.3-5.1-7.9c-14.9,8.7-18.1,11.2-18.6,14.9c3.1-1.9,5.8-3.5,9.6-5.8c0.9,3.5,2.4,6.6,2.1,9.3
	c-0.4,2.7-2.7,5.1-4.2,7.7c0.6,0.4,1.2,0.7,1.8,1.1c1.7-2.7,3.2-5.4,5-7.9C817.9,297.6,819.1,297.4,820.8,297.1 M124.4,568.9
	c3.8-0.7,7.5-1.5,11.3-2.2c-0.1-0.6-0.2-1.3-0.2-1.9c-3.2,0.3-6.3,0.5-10.8,0.9c0.6-3.5,0.5-6.9,2-9.4c1.3-2.2,4.4-3.4,6.8-5
	c-0.5-0.6-0.9-1.2-1.4-1.7c-3.1,2.2-6.2,4.4-8,5.6c-4-0.4-7.6-1.9-9.6-0.7c-2,1.2-2.8,5.1-3.1,7.9c-0.3,2.6,0.9,5.4,1.5,8.3
	C116.7,570,120.1,569.5,124.4,568.9 M375.9,133.5c-5.9-3.9-12-3.4-16.1,1.3c-3.8,4.3-3.2,12.1,1.3,16.8c3.9,4.1,10,4.5,14.9,1
	C381.5,148.7,381.6,141.6,375.9,133.5 M325.3,836.5c-3.1,2-8.3,2.6-7.2,7.7c1.3,6.5,7.9,6.9,12.4,9.7c8.3-14.6,10.2-19.3,8.6-22.1
	c-1.7,3-3.2,5.7-5.4,9.6c-2.5-2.6-5.4-4.4-6.4-7c-1-2.4-0.2-5.7-0.2-9.8C323.9,828.8,323.6,832.1,325.3,836.5 M589.3,881.1
	c2.1-0.3,3.8-0.6,3-3.7c-1.5-5.8-2.5-11.7-3.9-17.5c-0.2-0.8-1-1.6-1.5-2.3c-0.4,0.2-0.8,0.3-1.2,0.5c0.5,3.1,1,6.3,1.4,9
	c-8,5.4-10.8-2.7-15.2-6.8c-0.4,0.6-0.8,1.3-1.2,1.9c2.4,3,4.8,6,7.2,9c-2.1,1.6-3.7,4.3-2,8c1.7,3.8,5.1,3.2,8.2,2.9
	C585.6,882,587,881.5,589.3,881.1 M837,669.4c-2.1,2.2-3.8,5.2-6.3,6.3c-2.3,1-5.6,0-8.4-0.2c0,0.7-0.1,1.5-0.1,2.2
	c3.8,0.3,7.7,0.5,10,0.7c2.8,2.6,4.8,6,7.2,6.3c2.2,0.2,5.2-2.5,7.2-4.6c1.8-2,2.7-4.8,3.9-7.2c-11.8-7.5-19.2-10.7-21.8-9.2
	C831.6,665.5,834.2,667.1,837,669.4 M525.5,127.7c0.1,1.5,0.2,3,0.3,4.5c0.6,0,1.1-0.1,1.7-0.1c0.4-3,0.8-6,1.1-8.7
	c9.4-2.5,9.8,5.5,12.3,10.9c0.6-0.4,1.2-0.7,1.8-1.1c-1.2-3.7-2.5-7.3-3.8-11.2c2.9-0.8,5.3-3.8,3.8-7.4c-1-2.2-4.5-3.8-7.2-4.7
	c-2.5-0.9-5.4-0.6-8.4-0.9C526.6,115.3,526.1,121.1,525.5,127.7 M764.5,246.1c3.3,2.3,7.1,2.7,9.1-0.8c1.2-2.1,0.2-5.7-0.3-8.6
	c-0.3-1.5-1.9-2.8-2.3-4.3c-0.3-1.4-0.2-3.8,0.6-4.3c1.2-0.8,4.2-1,4.8-0.2c1.5,2,2.3,4.6,3.1,7.1c0.3,1.1,0.1,2.3,0.1,4.7
	c4.2-6.4,3.2-11.7-2.2-14c-2.2-0.9-5.9-0.6-7.6,0.7c-1.3,1-1.3,4.7-0.8,7.1c0.4,2.2,2.4,4,3.1,6.2c0.4,1.3,0.3,3.6-0.6,4.3
	c-0.9,0.9-3.3,1.2-4.5,0.6c-3.2-1.5-5.3-4-4.2-8c0.3-1.1,0.2-2.3,0.4-4.3C758.5,237.2,758.9,240.2,764.5,246.1 M115.4,583.2
	c0.8,3.5,1.6,7,2.5,10.7c7.9-1.7,15.2-3.4,22.8-5c-1.3-5.7-2.6-10.8-3.8-15.9c-0.6,0.1-1.3,0.3-1.9,0.4c0.9,4.4,1.7,8.9,2.6,13.5
	c-3,0.7-5.5,1.3-8.1,1.8c-1-2.8-1.9-5.4-2.8-8.1c-0.5,0.1-0.9,0.3-1.4,0.4c0.4,2.6,0.9,5.3,1.3,8.2c-2.4,0.6-4.6,1.1-7,1.7
	c-1.1-4.5-2-8.5-3-12.5c-0.5,0.1-1,0.1-1.6,0.2C115.1,579.9,115.1,581.1,115.4,583.2 M189.2,283.6c0.3,1.1,0.3,2.4,0.8,3.4
	c2.8,5-0.3,11.7-5.8,11.2c-3.5-0.3-7.4-2.7-10-5.3c-1.5-1.5-1.3-5.6-0.6-8.1c0.9-3,3.9-4.3,7.3-3.7c1.1,0.2,2.2-0.3,3.3-0.4
	c-6.3-3.4-10.8-1.8-13.4,4c-3.3,7.3,3.2,16.2,12.1,16.4c5,0.1,8.2-2.6,10-6.9C194.8,289.9,193.8,286.1,189.2,283.6 M455.8,114.4
	c-4.5-4.4-10.3-4.9-14.7-1.2c-4.6,3.8-5.2,11.9-1.3,17.3c3.2,4.5,9.4,5.7,14.2,2.7c3.3-2.1,4.6-4.9,3.6-8.6
	c-2.1,2.1-3.1,5.6-5.3,6.5c-2.4,1.1-6.4,0.8-8.7-0.6c-4.3-2.5-5.1-11.1-1.6-14.7c1.4-1.4,4-3,5.6-2.6c3.1,0.9,5.9,3.1,9.4,5.2
	C456.8,117.3,456.5,116.2,455.8,114.4 M544.7,865.9c-5.5,3.1-6.9,5.7-4.8,9.6c1.6-2.3,2.7-5.8,4.8-6.7c2.4-1,6.4-0.7,8.7,0.6
	c4.3,2.5,5,11.2,1.5,14.7c-1.4,1.4-4,3-5.6,2.6c-3.1-0.9-5.9-3.1-8.7-4.7c-1,2.9,1.7,6.4,6.1,7.1c4.7,0.7,8.7-0.6,11.2-4.8
	c2.9-4.9,2.3-10-0.7-14.6C554.5,865.4,550.3,864.3,544.7,865.9 M402.4,862.7c3.8-3.4,7.8-3.8,11-0.9c3.7,3.3,3.7,11.2-0.7,14.8
	c-1.9,1.5-5.3,2.5-7.6,1.9c-2-0.5-3.4-3.4-5-5.3c-0.7-0.9-1.1-2-2.3-4.2c-0.7,7.7,2.2,11.5,8.1,12.4c6.3,0.9,11.3-3.1,12.5-10
	c1.2-7-1.8-12.1-7.8-13.5c-5.8-1.3-9.6,0.9-11.2,6.5c0.5,0.1,1,0.5,1.3,0.3C401.2,864.4,401.6,863.8,402.4,862.7 M854.8,590.4
	c-0.8,7.2,1.2,10.6,7.7,11.1c-5.4-4.9-9-9.8-2.1-15.1c3.5-2.7,10.9-1.5,13.6,2.4c5.6,8.2-0.5,11.4-8.2,14c6.7,1.6,10.8-1,12.2-6.2
	c1.5-5.8-1.2-11-7-13.2C865.8,581.5,857.6,581.7,854.8,590.4 M695.4,160.8c-7.7-3.9-17.7,6.4-15.2,15.6c1.3,4.7,4.9,7.1,9.5,7.6
	c3.6,0.4,6.5-1,8.1-5.2c-5.7,2.7-11.5,5.3-14.9-2.5c-1.6-3.8,0.9-10.4,5.2-12.3c10-4.5,11.4,3,12.2,11.9
	C703.5,167.9,702.4,165.1,695.4,160.8 M615.2,874.4c0.3-0.5,1.1-1.1,1-1.4c-2-7.1-4.1-14.2-6.2-21.4c-5.7,1.7-10.7,3.3-15.6,4.8
	c0.2,0.6,0.4,1.3,0.6,1.9c4.3-1.1,8.6-2.3,13.3-3.5c0.8,2.9,1.5,5.5,2.2,8c-2.9,1.2-5.3,2.2-7.7,3.2c0.2,0.5,0.4,1,0.6,1.5
	c2.6-0.6,5.2-1.3,8.1-2c0.7,2.6,1.3,4.7,1.9,6.9c-4.3,1.4-8.2,2.7-12.2,4c0.2,0.6,0.3,1.2,0.5,1.8
	C605.9,877.1,610.1,875.9,615.2,874.4 M627.2,146.5c0.6,1.8,1.2,3.7,1.8,5.5c0.5,1.3,1,2.6,1.5,3.9c1.1-6.2,1.2-12,1-17.8
	c-0.1-2.6-1-5.1-1.6-7.6c-1.9,1.6-4,2.9-5.6,4.7c-4,4.5-7.7,9.2-11.5,13.7c0.5,0.5,1,0.9,1.6,1.4c2-2,4-4.1,6.1-6.2
	C622.4,144.8,624.5,145.5,627.2,146.5 M179,727.1c6.2,8.2,17.4,6.9,21.5-2.5c1.9-4.4,0.7-9.5-3.2-12.5c-3.5-2.7-7.1-3-12.4,0.7
	c8-0.3,15.1-0.3,13.9,9.2c-0.6,4.2-6.4,8.7-10.8,8.1c-9.8-1.1-8-8-6.1-14.8C177.9,718.5,176.7,722,179,727.1 M874.6,478.9
	c4.3-1.2,8.5-1,11.4,2.7c5,6.4-0.3,10.1-5.7,14.2c7.3-0.6,10.3-4.3,9.7-10.5c-0.6-6.7-6.4-10.5-14.3-9.4c-6.4,0.8-10.6,6.2-9.6,12.2
	c0.9,5.4,4.5,8.3,9.1,7.4c-2.2-2.4-5.3-4.6-6.4-7.6C867.2,483.9,869.8,480.8,874.6,478.9 M107,519.1c0.8,7,7.5,10.5,15.7,8.7
	c5.8-1.2,9.3-6.9,8.1-12.4c-1.1-5.2-4.4-7.7-10.5-6.9c2.4,1.4,4.3,1.9,5.5,3.2c1.3,1.4,2.4,3.3,2.6,5.1c0.2,1.8-0.6,4-1.6,5.5
	c-2.6,3.7-9.8,4.8-13.6,1.9c-8.2-6.2-2.9-11.1,3.6-16.2C109.2,509,107.3,511.4,107,519.1 M343.7,146.8c1,0.5,1.9,1,3.9,2.1
	c-3.2-6.4-7.7-7.9-12.9-5.4c-5.8,2.8-7.7,9.3-4.5,15.8c3.1,6.3,9.1,8.7,14.8,6c5.2-2.5,6.9-6.9,4-13.4c-0.5,2.4-0.4,3.8-1,4.8
	c-1.4,2.4-2.7,5.4-4.9,6.6c-3.7,2.1-7.1,0.1-9.3-3.3c-2.4-3.8-4.1-7.9-0.8-12C335.7,144.6,339.2,143.7,343.7,146.8 M719.1,818.4
	c1.7,0.7,3.4,1.5,5.1,2.2c0.3-0.8,1.1-1.8,1-2.5c-1.8-7.4-3.7-14.9-5.6-22.3c-0.6-0.1-1.2-0.3-1.8-0.4c1.6,6.7,1.2,12.3-6.3,14
	c-2.3-1.2-4.9-2.5-7.5-3.8c-0.3,0.5-0.5,1.1-0.8,1.6C708.3,810.8,713.4,814.4,719.1,818.4 M727.3,789c0,3,0,6.1,0,9.1
	c0.8,0,1.5-0.1,2.3-0.1c-0.1-1.2-0.1-2.5-0.3-3.6c-1-5.3,3.8-10.6,8.8-8.7c3.2,1.2,6.4,4.3,7.9,7.4c1,2.1,0,6.1-1.5,8.5
	c-1.8,2.8-5.1,3.3-8.5,1.4c-0.9-0.5-2.1-0.3-3.2-0.4c5.3,5.2,11.2,4.5,14.9-0.8c3.5-5,1.6-12.4-4.1-16.7
	C738.3,781.1,732.6,782.2,727.3,789 M288.4,180.9c-1.6,1-3.3,2-5,3.1c-1.4-2.2-2.7-4.2-3.9-6.1c3.8-2.6,7.2-5,10.6-7.4
	c-0.4-0.6-0.7-1.2-1.1-1.7c-4.3,2.8-8.6,5.6-13.2,8.5c4.3,6.6,8.5,12.9,12.9,19.6c4.8-3.2,9.2-6.1,13.7-9.1
	c-0.4-0.6-0.8-1.2-1.1-1.7c-3.8,2.4-7.6,4.7-11.6,7.3c-1.6-2.5-3.1-4.8-4.8-7.2c2.5-1.7,4.7-3.3,6.9-4.8c-0.1-0.3-0.3-0.7-0.4-1
	C290.5,180.4,289.8,180.5,288.4,180.9 M470,127.4c1.4-4.6,5.4-1.7,8.1-2.5c0.7-0.2,2.3,1.7,3.2,2.8c1.2,1.4,2.1,3,3.2,4.6
	c0.4-0.3,0.9-0.6,1.3-1c-3-6.8-5.9-13.6-8.9-20.4c-1-2.3-3.2-3.3-4.2-0.6c-2.6,7.4-4.6,15-6.9,22.5c0.6,0.2,1.1,0.4,1.7,0.6
	C468.2,131.6,469,129.9,470,127.4 M113.5,496c5.4,2.1,10.9,4.1,16.3,6.2c0.2-0.5,0.5-0.9,0.7-1.4c-1.4-0.8-2.6-2.1-4.1-2.4
	c-3.7-0.8-4-3.1-3.9-6.3c0.1-3.1,0.5-5.4,4.2-6.1c1.4-0.3,2.6-1.5,3.9-2.4c-0.3-0.4-0.6-0.9-0.9-1.3c-5.6,1.9-11.3,3.8-16.8,5.9
	c-2.1,0.8-4,2.3-6.1,3.4C108.8,493,110.7,494.4,113.5,496 M801.2,267.3c1.7-1.8,3.3-3.6,5.1-5.6c3,3.8,5.6,7.1,8.5,10.8
	c0.6-3.3-3.3-9.2-8.5-13.7c-5.9,4.5-11.8,9.1-18.1,14c3.6,4.4,7,8.6,10.3,12.7c0.5-0.4,1-0.8,1.4-1.2c-2.7-3.6-5.3-7.1-8.2-10.9
	c2.3-1.8,4.5-3.5,6.7-5.2c2,2.2,3.9,4.3,5.8,6.4c0.4-0.4,0.9-0.8,1.3-1.2C804.3,271.5,802.9,269.7,801.2,267.3 M156.1,343.4
	c0.8-3.3,2.9-3.9,6-3.4c1.4,0.2,2.9-0.4,4.3-0.6c-0.1-0.5-0.2-1-0.3-1.5c-7.1-0.6-14.2-1.4-21.3-1.9c-1.1-0.1-2.3,0.6-3.3,1.3
	c-0.3,0.2-0.2,1.7,0.2,2.1c5.6,5.4,11.4,10.8,17.1,16.2c0.3-0.2,0.6-0.5,0.9-0.7c-1.8-2.2-3.7-4.4-5.7-6.8
	C154.5,346.8,155.1,345.5,156.1,343.4 M210.2,266.5c-6.3-2-12.7-4-19-5.9c-0.9-0.3-2.2,0-3,0.5c-0.4,0.3-0.5,1.9-0.1,2.5
	c4,6.5,8.1,13,12.2,19.5c0.6-0.3,1.1-0.6,1.7-0.9c-1.3-2.7-2.7-5.3-3.9-7.8c2.7-4.6,5.2-9,11.6-5.6
	C211.4,269.9,211.8,269.3,210.2,266.5 M187.5,700.5c-2.6,0-5.5,2.9-7.8-1.2c-2-3.5-4.1-6.5,0.1-9.8c0.7-0.6,0.7-2.2,1-3.3
	c-0.4-0.2-0.8-0.3-1.3-0.5c-4.7,6-9.4,11.9-13.8,18c-0.3,0.5,1.4,3.4,1.9,3.3c7.6-1.3,15.1-2.9,23.8-4.7
	C189.6,701.1,188.9,700.7,187.5,700.5 M789.1,760c2.3,0.7,4.7,0,3.5-2.5c-3.3-7.1-7.2-13.8-10.9-20.7c-0.6,0.3-1.2,0.5-1.8,0.8
	c1.1,2.6,2.2,5.3,3.3,7.9c-2.9,4.4-5.8,8.9-12.1,4.6c-0.5-0.3-1.7,0.5-3.8,1.2C775.2,754.5,781.8,757.1,789.1,760 M714.6,199.6
	c1.8-6.7,3.6-13.4,5.3-20.2c0.3-1-0.2-2.5-0.8-3.4c-0.3-0.4-2.2,0-3,0.5c-6.1,4.1-12.2,8.4-18.2,12.7c0.3,0.6,0.6,1.1,0.9,1.7
	c2.5-1.4,5.1-2.8,7.9-4.3c2.4,1.7,4.9,3.4,7.4,5.1c-0.6,2.4-1.4,4.3-1.6,6.2C712.3,198.6,713.6,199.4,714.6,199.6 M241.6,791.8
	c-0.1,1.5-0.2,3-0.1,4.5c0,0.2,1.6,0.7,2.1,0.4c6.9-3.6,13.7-7.3,20.6-11c-0.2-0.5-0.5-1.1-0.7-1.6c-1.6,0.6-3.4,0.9-4.7,1.9
	c-3,2.3-4.8,0.4-6.8-1.5c-2-1.8-4.1-3.3-2.2-6.6c0.8-1.4,0.7-3.3,1-5c-0.5-0.1-1.1-0.2-1.6-0.2C246.7,778.8,244.3,784.9,241.6,791.8
	 M851.3,606.9c0.9,1.2,1.6,2.9,2.8,3.6c3.4,1.8,2.8,4.2,1.8,7.1c-1,2.9-1.8,5.2-5.6,4.6c-1.4-0.2-3,0.6-4.5,1
	c7.8,0.8,15.2,0.9,22.6,0.7c0.9,0,2.1-0.8,2.6-1.6c0.3-0.5-0.4-1.9-1-2.4C863.9,615.4,857.8,610.9,851.3,606.9 M873.4,415.1
	c-5.6-0.8-11.3-1.5-17.8-2.4c2.7,2.8,5.4,15.5,4.6,19.8c5.4-3.4,10.5-6.4,15.4-9.7c2-1.4,3.7-3.3,5.5-5.1
	C878.9,416.9,876.6,416,873.4,415.1 M385.1,866.7c3.3-4.2,6.6-8.4,10-12.6c-0.4-0.4-0.8-0.8-1.1-1.2c-1,0.7-2.2,1.3-2.8,2.3
	c-1.9,3.1-3.8,4.2-7.7,2.8c-3.5-1.3-5.2-2.8-4.7-6.7c0.1-1.1-0.9-2.4-1.7-4.5c-0.7,1.5-1,1.8-1,2.1c0.2,5.3,0.2,10.6,0.7,15.9
	c0.2,2.8,1.1,5.5,1.6,8.2C380.6,871.1,382.6,869.2,385.1,866.7 M121.9,607.9c1.2,4.1,2.4,8.1,3.6,12.2c0.6-0.2,1.2-0.3,1.8-0.5
	c-0.5-2.4-1-4.8-1.6-7.6c3.7-1.1,7.2-2.1,10.6-3.2c3.1-1,6.2-2.2,9.2-3.3c-0.2-0.6-0.5-1.2-0.7-1.9c-6.6,1.9-13.1,3.8-19.7,5.7
	c-1.2-2.6-2.2-4.9-3.2-7.2c-0.5,0.2-0.9,0.4-1.4,0.6C120.9,604.1,121.3,605.7,121.9,607.9 M639.3,862.9c-1.5,0.5-3.1,0.9-4.7,1.4
	c-2.6-6.7-5.1-13-7.5-19.4c-0.7,0.3-1.5,0.5-2.2,0.8c2.4,6.5,4.7,13,7.1,19.7c-2.4,1.1-4.7,2.2-7,3.3c0.3,0.6,0.5,1.2,0.8,1.8
	c5.3-2,10.6-4.1,15.8-6.2c0.3-0.1,0.2-1.3,0.2-2C641.2,862.5,640.6,862.6,639.3,862.9 M344.8,860.6c2.8,1.1,5.7,2.2,8.5,3.3
	c0.2-0.5,0.4-1,0.6-1.5c-2.3-1.3-4.6-2.5-6.8-3.8c2.8-6.5,5.5-12.8,8.2-19c-0.7-0.3-1.4-0.7-2-1c-3,6.4-6,12.7-8.9,19.1
	c-2.7-1-4.9-1.8-7.1-2.7c-0.2,0.6-0.5,1.1-0.7,1.7C339.1,857.9,341.6,859.1,344.8,860.6 M836.2,648.1c6.1,2.8,12.2,5.6,18.5,8.5
	c-1,2.5-1.9,4.8-2.8,7.1c0.7,0.3,1.3,0.5,2,0.8c2.4-5.5,4.9-11.1,7.3-16.6c-0.6-0.3-1.2-0.6-1.7-0.9c-1.3,2.3-2.5,4.6-3.8,6.9
	c-5.6-2.4-10.8-4.8-16.2-7C838.5,646.6,837.1,647.2,836.2,648.1 M114.4,457.7c5.1,0.6,10.2,1.2,15.4,1.6c0.8,0.1,1.7-0.7,2.6-1.1
	c-0.1-0.3-0.2-0.7-0.4-1c-6.7-0.8-13.5-1.6-20.7-2.5c0-2.7,0-5.2,0-7.7c-2.9,5.9-3.6,15.5-1.4,18.7c0.4-2.5,0.5-4.5,1.1-6.3
	C111.2,458.5,112.6,458.1,114.4,457.7 M796.6,249.5c1.4,1.3,2.7,2.6,4.1,4c0.4-0.4,0.8-0.8,1.2-1.3c-4-4.6-7.9-9.1-11.9-13.7
	c-0.5,0.4-1,0.8-1.5,1.2c1.5,2,3.1,3.9,4.7,6.1c-5.4,4.7-10.6,9.2-15.8,13.6c0.2,0.4,0.5,0.9,0.7,1.3c1.1-0.4,2.3-0.6,3.2-1.3
	c3.6-2.9,7-6.1,10.7-9C793.2,249.6,794.7,249.4,796.6,249.5 M260.8,191.1c1.2,0.8,2.7,1.4,3.6,2.5c3,3.7,5.8,7.6,8.8,11.4
	c0.6,0.7,1.6,1,2.4,1.5c0.4-0.4,0.8-0.7,1.1-1.1c-4.2-5.5-8.4-11.1-12.6-16.6c2.1-1.8,4-3.5,5.9-5.1c-0.4-0.5-0.9-1-1.3-1.6
	c-4.8,3.7-9.6,7.3-14.4,11c0.4,0.6,0.8,1.1,1.2,1.7C257.1,193.6,258.6,192.6,260.8,191.1 M239.7,238.2c0.3-0.9,0.6-1.8,0.9-2.7
	c-0.5-0.4-1.1-0.7-1.6-1.1c-2.3,3-4.6,5.9-6.9,8.9c-0.8,0.3-1.7,0.6-2.5,0.9c-4.3-5.3-8.6-10.7-12.9-16c-0.6,0.5-1.1,1.1-1.7,1.6
	c4.8,6,10.9,11,16.7,16.9C234.5,243.8,236.9,241.3,239.7,238.2 M509.9,131.3c0.4-1,1-1.9,1.1-2.9c0.4-5.9,0.6-11.9,0.9-18.4
	c2.7,0,5.1,0,7.4,0c0-0.5,0-0.9,0-1.4c-5.9,0-11.7,0-17.6,0c0,0.3-0.1,0.7-0.1,1c2.4,0.2,4.9,0.5,7.5,0.8
	C509.1,117.5,509.1,124.2,509.9,131.3 M688.2,838.1c-3-5.7-6-11.3-9.1-17.2c-4.4,2.4-8.3,4.6-12.3,6.8c0.3,0.5,0.6,1.1,0.9,1.6
	c3.3-1.6,6.6-3.1,10.3-4.9c2.7,5.2,5.5,10.5,8.3,15.7c0.5,0.9,1.8,1.4,2.7,2C688.8,841,688.7,839.8,688.2,838.1 M156.9,686.2
	c-0.8,0.9-1.5,1.9-2.3,2.8c0.3,0.3,0.7,0.6,1,1c6.8-3.6,13.5-7.2,20.4-10.9c-2.5-4.4-4.6-8.4-6.8-12.3c-0.5,0.3-1.1,0.5-1.6,0.8
	c1.6,3.4,3.2,6.7,4.9,10.4C167.5,680.6,162.5,683.3,156.9,686.2 M205.8,247.6c-1.5-1.1-3.1-2.2-4.6-3.2c-0.4,0.5-0.8,1-1.2,1.6
	c5.8,5.1,11.5,10.3,17.5,15.6c3.2-3.8,6.2-7.3,9.2-10.7c-0.5-0.5-1-0.9-1.6-1.4c-2.4,2.9-4.8,5.8-7.2,8.9
	C213.5,254.4,209.9,251.3,205.8,247.6 M151,668.7c5.3-2.6,10.7-5.1,16.1-7.7c-2.2-4.5-4.2-8.6-6.1-12.6c-0.6,0.3-1.2,0.6-1.8,0.9
	c1.5,3.4,3,6.9,4.5,10.4c-6.5,3.1-12.7,6.1-18.9,9.1c0.3,0.6,0.6,1.3,0.8,1.9C147.2,670.1,148.8,669.5,151,668.7 M743.2,213.8
	c3.2-3.7,6.5-7.5,9.7-11.2c-0.6-0.5-1.2-1.1-1.8-1.6c-5.2,5.8-10.3,11.5-15.7,17.5c3.8,3.3,7.3,6.3,10.7,9.3c0.5-0.6,1-1.1,1.5-1.7
	c-2.9-2.4-5.8-4.8-8.8-7.2C740.5,216.9,741.6,215.6,743.2,213.8 M873.3,448c-3.4,0.4-6.8,0.8-10.2,1.2c0.6,5,1.2,9.5,1.7,13.9
	c0.6,0,1.2-0.1,1.9-0.1c-0.2-3.7-0.5-7.5-0.7-11.4c6.9-0.9,13.8-1.8,20.6-2.7c-0.1-0.7-0.1-1.4-0.2-2.1
	C882.4,447.1,878.3,447.5,873.3,448 M699.2,818.3c2.7,4.3,5.5,8.7,8.2,13c0.6-0.4,1.3-0.8,1.9-1.2c-3.4-6.9-8-13.1-12.1-20.1
	c-4.2,2.7-8,5.2-11.8,7.6c0.3,0.5,0.7,1.1,1,1.6c3.3-1.8,6.6-3.7,9.9-5.5C697.2,815.2,698,816.4,699.2,818.3 M722.8,201.2
	c-1,1.3-1.9,2.6-3.1,4.2c3.9,2.9,7.6,5.6,11.2,8.3c0.4-0.5,0.8-1.1,1.2-1.6c-2.9-2.4-5.7-4.7-8.7-7.2c4.3-5.7,8.4-11.1,12.6-16.7
	c-1-0.5-1.8-1-1.8-0.9C730.4,191.7,726.8,196.2,722.8,201.2 M827.4,306.6c1.8,1,3.6,1.9,5.7,3c-5.2,3-10.1,5.9-15.4,8.9
	c3.5,1.4,18.7-6.6,21.2-10.3c-3.4-1.2-6.8-2.4-10.3-3.4C828.2,304.7,827.5,305.6,827.4,306.6 M877.6,436.4c-5.4,1-10.9,1.9-16.3,2.9
	c0.1,0.8,0.2,1.6,0.3,2.4c7.7-0.9,15.4-2.4,23.1-3.8c0-0.6,0-1.1,0-1.7C882.7,436.2,880.6,436.2,877.6,436.4 M664.9,841.6
	c1.8,3.4,3.5,6.9,5.6,10.9c1.4-3.5-4.6-17.1-9.8-22C660.5,834.4,663.2,837.5,664.9,841.6 M842.6,631.6c6.7,4.6,14.2,6.5,22.1,7.7
	c-5.6-3.2-11.5-5.5-17.5-7.7C845.8,631.1,844.3,631.2,842.6,631.6 M309.7,835.2c-0.9,2.1-1.7,4.1-2.6,6.2c0.6,0.3,1.2,0.5,1.8,0.8
	c3.7-6.8,7.4-13.6,11.1-20.4c-0.7-0.4-1.3-0.7-2-1.1C315.3,825.3,312.7,829.9,309.7,835.2 M365.1,861.7c1.9-5.1,3.9-10.3,5.9-15.7
	c-4,0.6-10.9,18.2-8.7,22.4C363.3,866.1,364.1,864.3,365.1,861.7 M494.6,119.6c-0.1-9.6-0.1-9.6-2.3-10.6
	c-1.5,10.8-0.5,21.8,2.5,23.1C494.8,128.1,494.8,124.3,494.6,119.6 M119,413.9c-1.1,0.2-2.2,0.4-3.2,0.6c0,0.5,0.1,0.9,0.1,1.4
	c7.6,1.3,15,4.1,22.7,4.3c0.1-0.6,0.2-1.2,0.3-1.9C132.6,416.9,126.2,415.5,119,413.9 M147.1,646.5c3.7-1.6,7.4-3.1,11.8-4.9
	c-3.9-1.6-20.1,4.6-22.4,9.1C139.7,649.4,143,648.1,147.1,646.5 M552.1,124.7c0.5-4.4,1.1-8.9,1.6-13.3c-0.5,0-0.9,0-1.4,0
	c-3.1,5.9-4.3,21.5-1.6,23.1C551.2,131.4,551.6,128.5,552.1,124.7 M818.8,681.5c0.2,0.9,0,2.3,0.5,2.6c5.7,3.4,11.5,6.6,17.3,9.8
	c0.5,0.3,1.6-0.3,3.7-0.8C832.6,688.6,826,684.9,818.8,681.5 M757.5,228c10.3-11,10.3-11,9.1-13.2c-9.8,8.6-15.4,15.6-14,18.5
	C754.1,231.7,755.5,230.1,757.5,228 M238.5,225c2.4,2.4,4.7,4.9,7.3,7.5c1.1-3.9-12.2-18.2-16.2-17.3
	C232.6,218.4,235.3,221.4,238.5,225 M124.9,475.3c2,0.1,4.1,0.3,6.5,0.4c-2-3.1-19-4.7-23.5-1.5
	C113.3,474.6,118.6,474.9,124.9,475.3 M880.6,568.7c-1.1,0.7-2.1,1.4-3.1,2c-0.7-1-1.3-2-2-3c-0.3,0.2-0.6,0.3-0.8,0.5
	c0.1,1.2,0.3,2.3,0.4,3.4c-1.5,0.1-2.7,0.2-3.8,0.2c0,0.3-0.1,0.5-0.1,0.8c1.1,0.5,2.2,1,3.3,1.5c-0.5,1.2-1,2.3-1.5,3.5
	c0.2,0.2,0.5,0.3,0.7,0.5c1-0.8,2-1.6,3-2.3c0.8,1,1.4,1.7,1.2,1.5c2-1.3,3.6-2.3,5.5-3.6c-1.6-0.4-2.8-0.7-4-1
	C879.9,571.5,880.5,570.4,880.6,568.7 M457.3,886.4c1.2,0,2.4,0,3.6,0c0.3,1.1,0.6,2.3,0.8,3.4c2.1-3.1,4.1-5.8,6.3-9
	c-1.6,0.4-2.7,0.7-3.8,0.9c-0.4-1.4-0.7-2.6-1-3.8c-0.3,0-0.7,0.1-1,0.1c-0.2,1.2-0.3,2.4-0.5,3.7c-1.3-0.6-2.5-1.1-3.7-1.6
	c-0.2,0.2-0.4,0.5-0.5,0.7c0.8,1,1.6,1.9,2.5,3C459,884.5,458.1,885.1,457.3,886.4 M246.4,759.1c-1.9-1.7-3.7-3.4-5.6-5.1
	c-0.1,0.1-0.1,0.2-0.2,0.4c3,3.2,6,6.4,8.9,9.7c0.2-0.2,0.5-0.4,0.7-0.7C249.2,762.1,248.1,760.9,246.4,759.1z"/>
<path class="st2" d="M186.9,440.8c4.4-24.5,11.9-47.7,21.8-70.1c10.4-23.3,23.3-45.2,39.1-65.3c13.7-17.4,28.8-33.3,45.8-47.7
	c19.7-16.8,41.1-31,64.3-42.5c29.8-14.7,61.1-25,94.2-29.2c11.8-1.5,23.7-2.3,35.6-3c39.6-2.4,78,4.1,115.3,16.9
	c35.9,12.3,68.3,30.8,97.6,55c38.6,31.9,68,70.8,88.6,116.4c11.7,26,19.4,53.3,23.8,81.4c3.3,21.2,4.2,42.7,3,64.1
	c-2.1,37-10,72.8-24.8,107c-12.3,28.4-28,54.6-47.8,78.5c-19.9,24-42.6,44.8-68.5,62c-35.7,23.7-74.6,40.1-116.9,47.5
	c-15.6,2.7-31.5,4.1-47.3,5c-48.3,2.9-94.4-6.7-138.6-25.6c-28.6-12.2-54.5-28.8-78.3-48.9c-31.2-26.5-56.2-57.6-75.5-93.7
	c-16.5-30.9-27.3-63.7-33-98.2c-1.9-11.4-2.7-23-3.1-34.6c-0.5-13.2-0.7-26.5,0.1-39.8C182.9,464.4,185.2,452.9,186.9,440.8
	 M186.7,466.3c-3.7,33.6-1.8,66.8,5.1,99.8c37.1,175.9,217.7,285.1,391.3,236.4c162.8-45.7,260-211.5,220.7-376.2
	c-37.5-157.2-191.6-261.5-350.9-237c-83.6,12.9-151.6,53-203.4,119.8C214,355.1,193.2,407.5,186.7,466.3z"/>
<path class="st3" d="M389.5,131.4c1.2,5.1,2.5,10.3,3.7,15.4c-0.7,0.2-1.4,0.4-2,0.5c-2.1-7.2-4.1-14.5-6.2-21.8
	c2.4-2.1,4.2-2,6.1,0.8c3,4.6,6.2,8.9,9.5,13.6c3.6-6.8-0.9-15.6,6.6-22.4c2.3,9,4.3,16.5,6.2,23.9c-0.7,0.2-1.4,0.4-2,0.6
	c-1.7-5.5-3.3-11-5-16.5c-0.3,0-0.7,0.1-1,0.1c-0.8,6.3-1.6,12.6-2.4,18.9c-0.5,0.2-1.1,0.3-1.6,0.5c-3.4-4.7-6.9-9.4-10.7-14.7
	c-0.7-0.8-1.1-1-1.4-1.2C389.3,129.9,389.4,130.7,389.5,131.4z"/>
<path class="st4" d="M671.8,154.8c-4.6,4.2-9.2,8.3-13.9,12.5c-0.5-0.1-1-0.2-1.5-0.4c0.4-6.3,0.7-12.7,1.1-19
	c-0.3-0.1-0.6-0.2-1-0.3c-2.5,5.1-5.1,10.2-7.6,15.3c-0.6-0.4-1.3-0.7-1.9-1.1c3.2-6.9,6.3-13.8,9.5-20.6c3.6,0.1,4.4,1.7,3.9,4.8
	c-0.7,5.4-1,10.9-1.5,17.3c3.5-3.3,6.2-6.4,9.4-8.8c2.6-1.9,3.9-7.7,9.5-3.7c-4,6.8-5.8,14.4-10.5,20.5c-0.5-0.3-1.1-0.5-1.6-0.8
	c2.2-4.8,4.5-9.6,6.9-15.1c0.1-0.8,0-1.1,0-1.3C672.4,154.4,672.1,154.6,671.8,154.8 M657.8,146.5c-0.2,0-0.4,0-0.6,0
	C657.3,146.6,657.4,146.7,657.8,146.5z"/>
<path class="st3" d="M215.1,752.1c2.9-2.3,5.4-4.4,8-6.5c0.5,0.5,0.9,1.1,1.4,1.6c-5.8,5-11.5,10-17.2,15c-3.2-1.6-3.4-3.4-1.7-6.1
	c2.8-4.5,5.3-9.2,8-13.9c-7.6-1.2-13.7,7.8-22.3,3.1c14-12.9,16.8-14.9,20.2-14.1c-4.6,4-8.9,7.7-13.2,11.3c0.1,0.3,0.2,0.6,0.3,0.9
	c6.2-1.9,12.4-3.8,18.6-5.7c0.3,0.5,0.5,1,0.8,1.4c-3,5.4-6,10.8-8.9,16.2c0.2,0.3,0.5,0.6,0.7,0.8
	C211.5,755,213.1,753.7,215.1,752.1z"/>
<path class="st5" d="M165.2,306.4c3.7,4.6,7.4,9.3,11,13.9c-0.1,0.5-0.2,1-0.4,1.5c-6.4-0.7-12.8-1.4-19.2-2.1
	c-0.1,0.3-0.1,0.6-0.2,0.8c4.9,2.8,9.9,5.6,15,8.5c-2.8,1.7-6.8-0.1-21.3-9.3c0.5-2.8,1.5-4.1,4.9-3.4c5.3,1.2,10.8,1.8,16.6,2.7
	c-2.9-7-11.5-10.4-11.9-18.4c0.5-0.4,1-0.8,1.6-1.2c6.7,3.8,13.4,7.5,20.1,11.3c-0.4,0.7-0.7,1.4-1.1,2.1c-4.4-2.4-8.9-4.7-13.8-7.5
	C165.7,305.6,165.4,306,165.2,306.4 M163.3,304.4c0.2,0,0.5,0,0.7,0.1C163.9,304.4,163.8,304.2,163.3,304.4z"/>
<path class="st4" d="M494.4,886.2c0.6,0.1,1.3,0,1.3-0.2c0.2-4.5,0.2-9,0.4-13.4c0.1-1.2,0.5-2.5,0.7-3.7c0.5,0.1,1,0.1,1.4,0.2
	c0,7.6,0,15.2,0,22.8c-3.3,0.9-4.9,0.2-5.8-3c-1.4-5.1-3.2-10.1-5.2-16.4c-2,4.4-3.2,8.1-5.1,11.3c-1.7,2.9-0.6,8.6-7.4,7.5
	c0.4-7.9,0.7-15.5,1-23.2c0.6,0,1.2,0,1.7,0c0,5.9,0,11.8,0,17.7c0.3,0.1,0.6,0.2,0.9,0.3c2.8-6,5.5-12,8.3-18
	c0.6,0.1,1.1,0.1,1.7,0.2C490.4,874.1,492.3,880,494.4,886.2z"/>
<path class="st3" d="M866.1,555.1c4.8,0.7,9.2,1.3,13.5,1.9c0.2-0.5,0.5-0.9,0.7-1.4c-3.6-1.9-7.3-3.7-10.9-5.8
	c-2.1-1.3-3.9-3-5.8-4.6c2.2-0.8,4.4-1.8,6.7-2.5c3.8-1.1,7.7-2,11.6-3.9c-5.8-0.8-11.5-1.6-17.3-2.4c0.1-0.6,0.1-1.2,0.2-1.8
	c7.5-0.4,15,1.5,22.5,2c1.3,3.5-0.4,4.7-3.2,5.3c-5.3,1.2-10.6,2.5-16.1,3.8c5.3,5.6,14.7,5,17.9,12.4c-0.3,0.6-0.7,1.1-1,1.7
	c-7.6-0.9-15.2-1.8-22.7-2.7c0-0.6-0.1-1.1-0.1-1.7C863.3,555.3,864.4,555.2,866.1,555.1z"/>
<path class="st5" d="M864.5,385.5c-3.2,2.4-6.1,4.6-10,7.5c6.7,0.5,12.4,0.8,18,1.6c1.5,0.2,2.9,1.9,4.3,2.9
	c-0.2,0.5-0.4,0.9-0.6,1.4c-7.3,2.1-14.7,4.3-22,6.4c-0.2-0.7-0.5-1.4-0.7-2.1c5.7-1.8,11.4-3.7,17.1-5.5c0-0.3,0-0.5,0.1-0.8
	c-6.5-0.6-13.1-1.2-19.6-1.9c-0.3-0.4-0.6-0.9-0.8-1.3c4.9-4,9.9-8,14.8-12c-0.1-0.3-0.3-0.6-0.4-0.9c-5.5,1.5-10.9,3-16.4,4.5
	c-0.2-0.7-0.4-1.4-0.6-2.1c7.2-2.2,14.5-4.5,21.6-6.7C871.4,380.5,871.4,380.5,864.5,385.5z"/>
<path class="st4" d="M771.4,769.6c-3.5-3.9-7-7.8-10.6-11.6c0.2-0.2,0.5-0.4,0.7-0.6c5.2,5.6,10.5,11.2,16.1,17.3
	c-0.7,1.5-2.5,1.5-5.2,0.1c-4.7-2.5-9.5-4.6-14.7-7.1c0.3,7.6,8.4,13.3,5.3,22.6c-6.5-6.5-12.2-11.8-17.1-17.8
	c0.5-0.5,1-0.9,1.5-1.4c3.8,3.7,7.5,7.5,11.7,11.7c0.8,0.6,1.1,0.8,1.5,1c-0.2-0.6-0.4-1.3-0.6-1.9c-1.8-4.6-3.8-9.2-5.5-13.8
	c-0.4-1.1-0.2-2.4-0.2-3.6c1.1,0.2,2.2,0.1,3.2,0.6c4.1,1.8,8.1,3.8,12.8,5.8C771.2,770.5,771.3,770.1,771.4,769.6z"/>
<path class="st6" d="M138.9,374.1c4.2,1.7,7.9,3.3,11.7,4.8c-0.3,0.7-0.6,1.3-0.9,2c-7.1-2.7-14.3-5.4-21.4-8
	c1.2-3.2,1.2-3.2,10-5.4c3.9-0.9,7.7-1.9,12.9-3.1c-6.5-2.7-12-5-17.5-7.2c0.3-0.7,0.6-1.3,0.8-2c7.3,2.7,14.5,5.4,21.8,8.1
	c0,0.5,0.1,1,0.1,1.5c-6.9,3.9-15.2,3.7-23.3,7C135.3,372.7,136.9,373.4,138.9,374.1z"/>
<path class="st6" d="M594.8,126c-2.1,5.6-3.9,11.4-5.6,17.2c-0.7-0.2-1.4-0.4-2.1-0.6c2-7.5,3.9-14.9,6.3-23.7
	c6.6,6.8,6.2,15.6,10.6,22.8c1.8-6.1,3.5-11.7,5.1-17.4c0.7,0.2,1.4,0.4,2.1,0.6c-1.9,7.4-3.8,14.8-6.2,23.6c-1.6-2-2.7-3-3.2-4.2
	C599.5,138.3,597.4,132.3,594.8,126z"/>
<path class="st4" d="M282.7,806.7c-3.4,4.7-6.7,9.1-10.8,14.7c-0.8-2.5-1.7-3.9-1.7-5.3c-0.1-6.3-0.1-12.6-0.1-19
	c-4.6,3.4-6.3,10.1-11.4,13.5c-0.4-0.4-0.9-0.7-1.3-1.1c4.5-6.2,8.9-12.4,13.4-18.6c0.5,0,1,0.1,1.5,0.1c1.9,7.7-0.2,15.8,0.7,24.2
	c4-5.2,7.7-10,11.5-14.9c0.5,0.4,1,0.7,1.5,1.1C285,803.1,284,804.8,282.7,806.7z"/>
<path class="st6" d="M303.4,812.5c5.8,5.5,6.2,11.6,1.4,17.4c-4.2,5.1-10.2,6-15.4,2.2c-5.1-3.7-6.2-9.5-2.7-15.4
	C290.4,810.2,295.8,808.8,303.4,812.5 M305.2,819c-1.4-4.2-4.4-6.4-8.6-6.2c-4.8,0.2-7.2,3.7-8.8,7.7c-1.7,4.1-0.4,7.5,3.2,10
	c3.6,2.4,7.7,2.4,10.3-1C303.4,826.8,304.1,823,305.2,819z"/>
<path class="st5" d="M810,729c-4.6-3.9-9.1-7.8-13.7-11.7c0.4-0.5,0.9-1.1,1.3-1.6c6.1,4.7,12.2,9.3,18.7,14.3
	c-3.9,3.9-8.1,1.6-11.9,1.8c-4,0.2-8.1-0.4-13.5-0.8c5.7,4.4,10.4,8.1,15.5,12c-3.2,1-13.2-5.7-20.8-13.5c8.1-1.7,15.5,0.1,23.5,0.1
	c0.9,0,1.2-0.1,1.5-0.2C810.5,729.3,810.3,729.1,810,729z"/>
<path class="st3" d="M840.8,365.9c-1.7-7.7,1.6-12.6,9.3-14.6c6.5-1.7,12,1.2,13.7,7.4c1.2,4.5,0.3,8.2-5.5,11
	c4-8,6.4-15.3-5.1-16.1c-6.2-0.4-11.1,4.6-10.6,9.5c0.5,4.6,3.4,6.8,8.9,6.4c-0.5-2.1-0.9-4.2-1.4-6.2c0.5-0.2,1-0.3,1.5-0.5
	c1.1,2.6,2.1,5.1,3.4,8.2c-3.6,1.4-6.8,2.7-10.1,4c-0.3-0.3-0.5-0.6-0.8-0.9c0.5-0.9,1.1-1.9,1.4-2.3
	C843.9,370,842.4,368.2,840.8,365.9z"/>
<path class="st6" d="M302.8,173.2c-1.8-3.3-3.6-6.3-5.4-9.6c2.9-1.6,5.3-3.7,8.1-4.4c2.6-0.7,6.2-0.9,8.2,0.4c2.9,2.1,3,5.7,0.7,8.2
	c3.2,2.3,6.3,4.6,9.5,6.8c-0.3,0.7-0.5,1.4-0.8,2.2c-5.2-3.4-10.2-9.4-16.4-2c1.3,2.3,2.7,5,4.2,7.8
	C308.4,183.1,308.4,183.1,302.8,173.2 M303.8,169.6c0.9,0.6,2.4,2,2.6,1.8c2.4-1.9,4.8-3.8,6.6-6.2c0.5-0.6-0.6-3.1-1.6-4.2
	c-0.7-0.7-2.6-0.8-3.6-0.4c-2.4,0.9-4.6,2.3-6.9,3.6C301.9,166.1,302.6,167.6,303.8,169.6z"/>
<path class="st6" d="M581.3,129.2c-2.7,8.4-8.6,11.6-15.6,8.8c-6.5-2.6-8.7-10.3-5.1-17.3c3.1-6,10.3-7.8,16.2-4.1
	C581.3,119.6,582.3,123.9,581.3,129.2 M575.3,134.9c5.2-6.3,4.9-14.1-0.7-16.8c-3.8-1.8-7.4-1.6-10.4,1.8c-2.9,3.4-3.4,9.8-1.1,13.1
	C565.5,136.5,569.7,137.3,575.3,134.9z"/>
<path class="st3" d="M125,406.2c-5.6-5-6.5-11.3-2.7-16.5c3.5-4.6,11.2-5.4,16.7-1.8c5,3.2,6.5,9.4,3.6,14.9
	C139.7,408.6,133.3,409.9,125,406.2 M137.3,390c-6.9-2.8-11.6-2-13.9,2.5c-2.3,4.3-1.2,8.8,2.7,11.3c4.8,3,10.9,2.7,13.6-0.8
	C143,398.9,142.4,394.6,137.3,390z"/>
<path class="st7" d="M526.9,870c6.2,8.4,4.2,18.4-3.7,20.9c-5.2,1.6-10.5-0.2-13.1-4.4c-3-4.9-2.5-12,1.1-15.8
	C514.9,866.7,520.8,866.4,526.9,870 M527.6,876.3c-2.4-5.9-6.5-8-11.6-6c-4.8,1.9-6.7,8.7-4,14.2c2.2,4.4,6.9,6,11.4,3.8
	C528,885.8,528.4,881.7,527.6,876.3z"/>
<path class="st6" d="M139,635.3c0.1-3.5-0.5-6.8,0.2-9.8c0.5-2.2,2.3-5.2,4.1-5.7c1.9-0.6,5.3,0.7,6.8,2.3
	c4.7,5.1,3.3,11.8-3.7,14.3c1.2-1.8,2.1-2.7,2.3-3.7c0.3-2.7,0.8-5.6,0.2-8.2c-0.3-1.1-3.1-2.3-4.7-2.2c-0.9,0.1-2.2,2.6-2.4,4.1
	c-0.3,2.4,0.7,5.1,0.2,7.4c-0.5,2-2,4.5-3.7,5.1c-1.7,0.6-4.7-0.1-6.2-1.4c-4.8-3.9-4-10.1,2.5-13.5c-0.7,1.2-1.9,2.3-2,3.5
	c-0.2,2.6-0.3,5.4,0.6,7.7C133.4,635.9,136.8,635.5,139,635.3z"/>
<path class="st4" d="M883.7,526.1c-9.1,2.5-15.9-0.8-17.4-7.9c-1.2-5.8,2-11.4,7.3-13.1c6.3-2,13,0.4,15.5,5.6
	C891.9,516.3,890,522.1,883.7,526.1 M883.4,523.4c4.5-3.3,5.8-7.3,3.7-11.5c-2-3.9-7.7-5.7-12.7-4.1c-4.4,1.4-6.6,5.1-5.7,9.7
	c0.8,4.3,4.8,7.1,10.1,7C880,524.4,881.3,524,883.4,523.4z"/>
<path class="st4" d="M823.1,695.7c6.2,4.5,8.1,8.5,6.5,13.5c-2.1,6.6-8.2,9.8-14.5,7.7c-6.9-2.4-10.7-9.2-8.5-15.2
	C809.1,694.8,815.1,692.5,823.1,695.7 M826,711.1c2.9-6.5,0.6-11.6-6.2-14c-5-1.8-9.8,0.8-11.2,6.1c-1.2,4.7,1.4,7.6,4.9,9.9
	C818.1,716,821.3,715.6,826,711.1z"/>
<path class="st3" d="M117.2,438.7c-2-0.5-3.6-0.8-5.6-1.3c0.5-2.9,0.4-5.9,1.6-8.3c1.2-2.6,3.2-5.8,5.5-6.6c3.4-1.1,6.2,1.4,6.9,4.7
	c3.9-0.9,7.7-1.9,11.4-2.8c0.3,0.6,0.7,1.2,1,1.8c-5.7,2.1-13.9,1.8-12.2,11.3c2.7,0.6,5.7,1.3,8.8,1.9
	C133.6,441.3,133.6,441.3,117.2,438.7 M123.9,428.1c-1.9-1-3.7-2-5.6-3c-1.6,3.2-3.2,6.4-5.1,10.1c4.1,0.8,6.8,1.3,10.2,1.9
	C123.6,434.1,123.8,431.5,123.9,428.1z"/>
<path class="st6" d="M659.2,857c-6.4,4.8-9.9,4.6-15.2-1.8c2.1,0.6,3.1,0.8,4,1.1c2.1,0.5,4.7,1.9,6.3,1.1c1.7-0.8,2.5-3.6,3.8-5.5
	c-1.8-0.7-3.6-1.9-5.4-2c-2.1-0.2-4.4,1.2-6.4,0.8c-2-0.4-4.8-1.7-5.4-3.3c-0.8-1.9-0.4-5.1,0.8-6.8c3.7-5.3,10.8-5,16.1,1.3
	c-2.2-0.5-3.1-0.8-4.1-1c-2.1-0.5-4.7-1.8-6.3-1.1c-2,0.9-4.5,3.6-4.4,5.4c0.1,3.8,3.6,2.9,6.2,2.6c1.2-0.1,2.4-0.9,3.4-0.6
	c2.5,0.5,5.8,0.7,7,2.3C660.6,851.1,659.5,854.3,659.2,857z"/>
<path class="st6" d="M260.5,218.4c-6,5-8.9,5.2-13.5,0.6c1.5,0,2.7-0.3,3.5,0.1c3.9,1.9,6.6,0,8.5-2.9c0.8-1.2,0.8-3.6,0.1-4.9
	c-0.5-0.9-3-1.5-4.2-1.1c-2.7,0.7-5.1,2.4-7.8,3.3c-4,1.2-8.1-1.8-7-5.7c0.8-2.9,3.4-5.9,6-7.8c2.8-2.1,5.9-0.7,7.9,2.9
	c-1.1-0.1-2.2-0.6-3.2-0.4c-2.5,0.6-5.2,1-7.4,2.4c-0.8,0.5-0.9,3.5-0.2,4.7c0.5,0.9,2.8,1.3,4.2,1.1c1.6-0.2,3-1.3,4.5-2.1
	c3.1-1.6,6.2-3,9,0.3C263.5,212,263,215.1,260.5,218.4z"/>
<path class="st5" d="M820.4,297c-1.3,0.4-2.5,0.6-3.1,1.4c-1.8,2.5-3.4,5.3-5,7.9c-0.6-0.4-1.2-0.7-1.8-1.1c1.5-2.6,3.8-5,4.2-7.7
	c0.4-2.7-1.2-5.8-2.1-9.3c-3.7,2.3-6.5,3.9-9.6,5.8c0.5-3.8,3.8-6.2,18.6-14.9c1.7,2.6,3.6,5.1,5.1,7.9
	C830.1,292.8,827.7,296.7,820.4,297 M818.1,293.5c2.5,2.1,6.2,2,6.7-0.6c0.6-3.3-1.4-7-2.4-11.4c-3.8,2.5-6.2,4.1-8.9,5.8
	C815.1,289.6,816.3,291.3,818.1,293.5z"/>
<path class="st5" d="M124,568.9c-3.9,0.6-7.3,1.1-11.2,1.7c-0.6-2.9-1.7-5.7-1.5-8.3c0.3-2.8,1.1-6.7,3.1-7.9c2-1.2,5.7,0.3,9.6,0.7
	c1.7-1.2,4.8-3.4,8-5.6c0.5,0.6,0.9,1.2,1.4,1.7c-2.3,1.6-5.4,2.8-6.8,5c-1.5,2.5-1.3,6-2,9.4c4.4-0.4,7.6-0.6,10.8-0.9
	c0.1,0.6,0.2,1.3,0.2,1.9C131.9,567.4,128.2,568.2,124,568.9 M122.4,560.4c-1-3.2-3.2-5.8-6.4-4.2c-5.5,2.8-1.4,7.4-1.6,11.5
	c3.2-0.5,5.9-0.9,8.9-1.4C123,564.4,122.8,562.8,122.4,560.4z"/>
<path class="st4" d="M376.1,133.8c5.5,7.9,5.3,14.9-0.1,18.9c-5,3.6-11.1,3.2-14.9-1c-4.4-4.7-5-12.5-1.3-16.8
	C363.9,130.1,370,129.6,376.1,133.8 M376.2,138.5c-3.3-5.4-7.2-6.8-11.8-4.3c-4.5,2.4-5.7,7.4-3.1,12.9c2.3,4.8,6.9,6.7,11.4,4.7
	C377.3,149.8,378.5,145.8,376.2,138.5z"/>
<path class="st4" d="M325.2,836.1c-1.6-4-1.2-7.3,1.9-11.5c0,4.1-0.8,7.3,0.2,9.8c1.1,2.6,3.9,4.4,6.4,7c2.2-3.8,3.7-6.6,5.4-9.6
	c1.6,2.8-0.3,7.5-8.6,22.1c-4.5-2.8-11.1-3.2-12.4-9.7C317.1,839.1,322.2,838.5,325.2,836.1 M320.5,844.3c2.7,2.3,5.4,4.7,8.5,7.3
	c1.7-3.3,2.8-5.3,3.8-7.4c0.2-0.4,0.2-0.9,0.3-1.4C325.8,838.1,323.3,838.3,320.5,844.3z"/>
<path class="st5" d="M588.9,881.1c-1.9,0.4-3.3,0.8-4.8,1c-3.1,0.3-6.5,0.8-8.2-2.9c-1.7-3.7-0.1-6.4,2-8c-2.4-3-4.8-6-7.2-9
	c0.4-0.6,0.8-1.3,1.2-1.9c4.4,4.1,7.3,12.2,15.2,6.8c-0.4-2.8-0.9-5.9-1.4-9c0.4-0.2,0.8-0.3,1.2-0.5c0.5,0.8,1.3,1.5,1.5,2.3
	c1.3,5.8,2.4,11.7,3.9,17.5C593.1,880.5,591.4,880.7,588.9,881.1 M586.5,870c-1.9,0.5-4.2,0.6-5.6,1.7c-1.5,1.3-2.8,3.6-2.7,5.5
	c0,1,3,2.5,4.8,2.7c2.2,0.2,4.4-0.7,7.2-1.3C589.2,875.4,588.2,872.7,586.5,870z"/>
<path class="st5" d="M836.9,669.1c-2.7-1.9-5.4-3.5-8.2-5.2c2.6-1.6,10,1.7,21.8,9.2c-1.3,2.4-2.1,5.2-3.9,7.2
	c-1.9,2.1-4.9,4.8-7.2,4.6c-2.4-0.3-4.4-3.7-7.2-6.3c-2.3-0.2-6.2-0.4-10-0.7c0-0.7,0.1-1.5,0.1-2.2c2.8,0.1,6.1,1.2,8.4,0.2
	C833.2,674.7,834.9,671.6,836.9,669.1 M836.6,675.3c-1.4,3.3-0.6,6.6,2.9,7.1c5.6,0.8,5.4-4.9,8-8.3c-2.9-1.5-5.4-2.8-8.1-4.2
	C838.4,671.7,837.7,673.1,836.6,675.3z"/>
<path class="st4" d="M525.6,127.3c0.6-6.2,1.1-12,1.6-18.3c2.9,0.3,5.9,0,8.4,0.9c2.7,1,6.2,2.5,7.2,4.7c1.6,3.6-0.8,6.6-3.8,7.4
	c1.3,3.9,2.6,7.5,3.8,11.2c-0.6,0.4-1.2,0.7-1.8,1.1c-2.6-5.4-2.9-13.4-12.3-10.9c-0.3,2.7-0.7,5.7-1.1,8.7c-0.6,0-1.1,0.1-1.7,0.1
	C525.7,130.7,525.6,129.2,525.6,127.3 M529.3,113.3c-0.1,2.3-0.3,4.6-0.5,7.6c3.2-0.2,6.1,0.1,8.6-0.6c1.3-0.4,2.6-2.5,2.9-4
	c0.2-1-1.1-3.3-2-3.4C535.5,112.3,532.5,112.5,529.3,113.3z"/>
<path class="st3" d="M764.2,245.8c-5.4-5.6-5.8-8.7-1.2-13.5c-0.2,2-0.1,3.2-0.4,4.3c-1.1,4,1.1,6.5,4.2,8c1.2,0.6,3.5,0.2,4.5-0.6
	c0.8-0.8,1-3,0.6-4.3c-0.7-2.2-2.7-4-3.1-6.2c-0.4-2.3-0.5-6,0.8-7.1c1.8-1.4,5.4-1.6,7.6-0.7c5.4,2.2,6.4,7.5,2.2,14
	c0-2.4,0.3-3.7-0.1-4.7c-0.8-2.5-1.6-5.1-3.1-7.1c-0.6-0.8-3.5-0.5-4.8,0.2c-0.8,0.5-0.9,2.9-0.6,4.3c0.4,1.5,2,2.8,2.3,4.3
	c0.5,2.9,1.6,6.5,0.3,8.6C771.7,248.8,767.8,248.4,764.2,245.8z"/>
<path class="st6" d="M115.3,582.8c-0.2-1.7-0.2-3-0.3-4.3c0.5-0.1,1-0.1,1.6-0.2c1,4,1.9,8,3,12.5c2.4-0.6,4.6-1.1,7-1.7
	c-0.5-2.9-0.9-5.6-1.3-8.2c0.5-0.1,0.9-0.3,1.4-0.4c0.9,2.7,1.9,5.3,2.8,8.1c2.6-0.6,5.2-1.2,8.1-1.8c-0.9-4.6-1.7-9-2.6-13.5
	c0.6-0.1,1.3-0.3,1.9-0.4c1.2,5.1,2.4,10.2,3.8,15.9c-7.6,1.7-15,3.3-22.8,5C117,590.2,116.2,586.7,115.3,582.8z"/>
<path class="st3" d="M189.5,283.5c4.3,2.6,5.3,6.4,3.5,10.7c-1.8,4.3-5,7-10,6.9c-8.8-0.2-15.4-9.1-12.1-16.4
	c2.6-5.8,7.1-7.5,13.4-4c-1.1,0.2-2.3,0.6-3.3,0.4c-3.5-0.6-6.4,0.7-7.3,3.7c-0.8,2.5-0.9,6.6,0.6,8.1c2.5,2.6,6.4,4.9,10,5.3
	c5.5,0.5,8.6-6.1,5.8-11.2C189.4,286,189.4,284.7,189.5,283.5z"/>
<path class="st7" d="M456,114.7c0.5,1.4,0.8,2.6,1.1,3.7c-3.5-2-6.3-4.3-9.4-5.2c-1.5-0.4-4.2,1.2-5.6,2.6
	c-3.5,3.6-2.8,12.3,1.6,14.7c2.3,1.3,6.3,1.6,8.7,0.6c2.2-0.9,3.2-4.4,5.3-6.5c1,3.7-0.3,6.5-3.6,8.6c-4.8,3-11,1.8-14.2-2.7
	c-3.9-5.4-3.2-13.5,1.3-17.3C445.5,109.5,451.3,110,456,114.7z"/>
<path class="st7" d="M545.1,865.8c5.2-1.5,9.4-0.4,12.2,3.9c3,4.6,3.6,9.7,0.7,14.6c-2.5,4.2-6.5,5.5-11.2,4.8
	c-4.5-0.7-7.1-4.2-6.1-7.1c2.8,1.6,5.6,3.8,8.7,4.7c1.5,0.4,4.2-1.2,5.6-2.6c3.5-3.6,2.8-12.3-1.5-14.7c-2.3-1.3-6.3-1.6-8.7-0.6
	c-2.2,0.9-3.3,4.4-4.8,6.7C537.8,871.6,539.1,869,545.1,865.8z"/>
<path class="st5" d="M402.2,863.1c-0.6,0.8-1,1.4-1.6,1.6c-0.3,0.2-0.9-0.2-1.3-0.3c1.6-5.6,5.4-7.8,11.2-6.5c6,1.4,9,6.5,7.8,13.5
	c-1.2,6.9-6.2,10.9-12.5,10c-5.8-0.8-8.7-4.6-8.1-12.4c1.2,2.2,1.6,3.3,2.3,4.2c1.6,1.9,3,4.8,5,5.3c2.3,0.5,5.7-0.4,7.6-1.9
	c4.4-3.6,4.4-11.5,0.7-14.8C410.1,859,406.1,859.3,402.2,863.1z"/>
<path class="st5" d="M854.9,590c2.7-8.4,10.9-8.5,16.2-6.6c5.8,2.1,8.5,7.4,7,13.2c-1.3,5.2-5.5,7.7-12.2,6.2
	c7.7-2.6,13.8-5.8,8.2-14c-2.7-3.9-10.1-5.1-13.6-2.4c-6.9,5.3-3.3,10.3,2.1,15.1C856,601,854,597.6,854.9,590z"/>
<path class="st3" d="M695.8,160.9c6.7,4.2,7.7,7,4.5,14.9c-0.8-8.9-2.2-16.4-12.2-11.9c-4.3,1.9-6.8,8.5-5.2,12.3
	c3.4,7.8,9.1,5.2,14.9,2.5c-1.5,4.2-4.5,5.6-8.1,5.2c-4.6-0.5-8.2-2.9-9.5-7.6C677.7,167.2,687.7,156.8,695.8,160.9z"/>
<path class="st6" d="M614.8,874.5c-4.7,1.3-8.9,2.5-13.2,3.7c-0.2-0.6-0.3-1.2-0.5-1.8c3.9-1.3,7.8-2.6,12.2-4
	c-0.6-2.2-1.2-4.4-1.9-6.9c-2.9,0.7-5.5,1.3-8.1,2c-0.2-0.5-0.4-1-0.6-1.5c2.4-1,4.8-2,7.7-3.2c-0.7-2.5-1.4-5.1-2.2-8
	c-4.7,1.2-9,2.4-13.3,3.5c-0.2-0.6-0.4-1.3-0.6-1.9c5-1.5,10-3.1,15.6-4.8c2.1,7.2,4.2,14.3,6.2,21.4
	C616.3,873.3,615.5,873.9,614.8,874.5z"/>
<path class="st8" d="M626.9,146.3c-2.4-0.8-4.4-1.5-6.4-2.2c-2.1,2.1-4.1,4.2-6.1,6.2c-0.5-0.5-1-0.9-1.6-1.4
	c3.8-4.6,7.5-9.3,11.5-13.7c1.6-1.8,3.7-3.2,5.6-4.7c0.6,2.5,1.5,5.1,1.6,7.6c0.2,5.8,0.1,11.6-1,17.8c-0.5-1.3-1-2.6-1.5-3.9
	C628.4,150.1,627.9,148.3,626.9,146.3 M627.1,135.4c-1.6,2.1-3.2,4.1-5.2,6.6c2.4,0.8,4.5,1.6,7,2.5c0-2.6,0.1-4.7-0.1-6.8
	C628.8,136.7,628.1,135.8,627.1,135.4z"/>
<path class="st5" d="M178.8,726.7c-2.1-4.7-1-8.2,3-11.5c-1.9,6.8-3.7,13.7,6.1,14.8c4.4,0.5,10.2-3.9,10.8-8.1
	c1.3-9.5-5.8-9.5-13.9-9.2c5.3-3.7,8.9-3.4,12.4-0.7c3.9,3,5.2,8.1,3.2,12.5C196.4,734,185.2,735.3,178.8,726.7z"/>
<path class="st4" d="M874.2,479c-4.4,1.8-7,4.9-5.4,9c1.1,2.9,4.2,5.1,6.4,7.6c-4.6,0.8-8.2-2-9.1-7.4c-1-6,3.2-11.4,9.6-12.2
	c8-1.1,13.7,2.7,14.3,9.4c0.5,6.1-2.4,9.9-9.7,10.5c5.3-4.1,10.6-7.8,5.7-14.2C883.1,477.9,878.9,477.7,874.2,479z"/>
<path class="st4" d="M106.9,518.7c0.3-7.4,2.2-9.7,9.9-10.7c-6.5,5-11.9,10-3.6,16.2c3.9,2.9,11,1.8,13.6-1.9
	c1.1-1.5,1.8-3.7,1.6-5.5c-0.2-1.8-1.3-3.7-2.6-5.1c-1.2-1.2-3-1.8-5.5-3.2c6-0.9,9.4,1.7,10.5,6.9c1.2,5.6-2.3,11.2-8.1,12.4
	C114.5,529.6,107.8,526.1,106.9,518.7z"/>
<path class="st3" d="M343.4,146.5c-4.2-2.8-7.8-1.9-10.5,1.4c-3.3,4-1.6,8.2,0.8,12c2.2,3.4,5.6,5.4,9.3,3.3
	c2.2-1.2,3.5-4.2,4.9-6.6c0.6-1,0.5-2.4,1-4.8c2.9,6.5,1.2,10.9-4,13.4c-5.8,2.7-11.8,0.3-14.8-6c-3.2-6.5-1.3-13.1,4.5-15.8
	c5.2-2.5,9.7-1,12.9,5.4C345.6,147.8,344.7,147.3,343.4,146.5z"/>
<path class="st6" d="M718.8,818.2c-5.4-3.8-10.5-7.4-15.6-11c0.3-0.5,0.5-1.1,0.8-1.6c2.6,1.3,5.1,2.6,7.5,3.8
	c7.5-1.7,7.8-7.3,6.3-14c0.6,0.1,1.2,0.3,1.8,0.4c1.9,7.4,3.8,14.8,5.6,22.3c0.2,0.7-0.6,1.7-1,2.5
	C722.5,819.9,720.8,819.2,718.8,818.2 M722.1,817.3c0-0.1,0.1-0.3,0.1-0.4c-0.2,0.3-0.3,0.5,0.1,0c-0.7-3.2-1.5-6.4-2.3-10.1
	c-2.5,1.8-4.3,3.1-6.3,4.5C716.6,813.6,719.1,815.6,722.1,817.3z"/>
<path class="st7" d="M727.5,788.6c5.1-6.4,10.7-7.6,16.1-3.6c5.8,4.2,7.6,11.7,4.1,16.7c-3.7,5.3-9.6,6-14.9,0.8
	c1.1,0.1,2.3-0.1,3.2,0.4c3.3,1.9,6.7,1.4,8.5-1.4c1.5-2.3,2.6-6.3,1.5-8.5c-1.5-3.1-4.7-6.2-7.9-7.4c-5-1.9-9.8,3.4-8.8,8.7
	c0.2,1.2,0.2,2.4,0.3,3.6c-0.8,0-1.5,0.1-2.3,0.1C727.3,795,727.3,792,727.5,788.6z"/>
<path class="st6" d="M288.7,180.7c1.1-0.3,1.8-0.3,2.6-0.4c0.1,0.3,0.3,0.7,0.4,1c-2.2,1.5-4.4,3.1-6.9,4.8c1.6,2.5,3.1,4.7,4.8,7.2
	c4.1-2.5,7.8-4.9,11.6-7.3c0.4,0.6,0.8,1.2,1.1,1.7c-4.5,3-8.9,5.9-13.7,9.1c-4.4-6.7-8.6-13.1-12.9-19.6c4.5-2.9,8.8-5.7,13.2-8.5
	c0.4,0.6,0.7,1.2,1.1,1.7c-3.4,2.4-6.8,4.7-10.6,7.4c1.3,2,2.5,3.9,3.9,6.1C285.2,182.9,286.8,181.9,288.7,180.7z"/>
<path class="st6" d="M469.9,127.8c-0.9,2.1-1.7,3.9-2.5,5.6c-0.6-0.2-1.1-0.4-1.7-0.6c2.2-7.5,4.2-15.1,6.9-22.5
	c1-2.7,3.2-1.7,4.2,0.6c3,6.8,5.9,13.6,8.9,20.4c-0.4,0.3-0.9,0.6-1.3,1c-1.1-1.5-2-3.2-3.2-4.6c-0.9-1.1-2.5-3-3.2-2.8
	C475.4,125.7,471.4,122.8,469.9,127.8 M474,113.2c-0.9,3.1-1.8,6.2-2.8,9.8c2.9-0.2,5.1-0.4,8.1-0.6
	C477.4,118.6,475.9,115.5,474,113.2z"/>
<path class="st6" d="M113.1,495.9c-2.3-1.5-4.3-2.9-6.3-4.3c2-1.2,3.9-2.6,6.1-3.4c5.6-2.1,11.2-3.9,16.8-5.9
	c0.3,0.4,0.6,0.9,0.9,1.3c-1.3,0.8-2.5,2.1-3.9,2.4c-3.7,0.7-4.1,3-4.2,6.1c-0.1,3.1,0.2,5.5,3.9,6.3c1.5,0.3,2.7,1.6,4.1,2.4
	c-0.2,0.5-0.5,0.9-0.7,1.4C124.3,500.1,118.9,498.1,113.1,495.9 M113.9,493.7c1.9,0.7,3.9,1.3,6.3,2.2c0-2.7,0-4.9,0-7.7
	c-3.2,1.1-6.3,2.1-10.5,3.6C111.5,492.6,112.4,493,113.9,493.7z"/>
<path class="st3" d="M801.4,267.6c1.6,2.1,2.9,3.9,4.2,5.7c-0.4,0.4-0.9,0.8-1.3,1.2c-1.9-2.1-3.8-4.2-5.8-6.4
	c-2.2,1.7-4.4,3.4-6.7,5.2c2.8,3.8,5.5,7.4,8.2,10.9c-0.5,0.4-1,0.8-1.4,1.2c-3.4-4.2-6.8-8.3-10.3-12.7c6.3-4.9,12.2-9.4,18.1-14
	c5.2,4.5,9.1,10.4,8.5,13.7c-2.9-3.6-5.5-6.9-8.5-10.8C804.5,263.7,802.8,265.5,801.4,267.6z"/>
<path class="st4" d="M155.9,343.8c-0.8,1.7-1.4,3-1.9,4.3c2,2.4,3.8,4.6,5.7,6.8c-0.3,0.2-0.6,0.5-0.9,0.7
	c-5.7-5.4-11.4-10.7-17.1-16.2c-0.4-0.4-0.5-1.9-0.2-2.1c1-0.6,2.2-1.3,3.3-1.3c7.1,0.5,14.2,1.2,21.3,1.9c0.1,0.5,0.2,1,0.3,1.5
	c-1.4,0.2-2.9,0.8-4.3,0.6C159,339.6,156.8,340.2,155.9,343.8 M148.7,339c-1.2,0-2.3,0-3.5,0c2.4,2.5,4.5,4.7,7,7.3
	c1-2.2,2-4.3,3.2-6.8C152.8,339.3,151.2,339.1,148.7,339z"/>
<path class="st3" d="M210.6,266.7c1.2,2.6,0.9,3.3-0.9,2.3c-6.4-3.5-8.9,1-11.6,5.6c1.2,2.5,2.6,5.1,3.9,7.8
	c-0.6,0.3-1.1,0.6-1.7,0.9c-4.1-6.5-8.2-12.9-12.2-19.5c-0.4-0.6-0.3-2.2,0.1-2.5c0.8-0.5,2.1-0.8,3-0.5
	C197.5,262.5,203.8,264.6,210.6,266.7 M199.3,265.8c-2.5-0.7-5-1.5-8.9-2.6c2.5,3.9,4.2,6.5,6.5,10.1
	C198.2,270.3,199.1,268.1,199.3,265.8 M190.8,263.5l-0.2-0.1C190.6,263.5,190.7,263.6,190.8,263.5z"/>
<path class="st3" d="M187.9,700.4c1,0.3,1.6,0.7,3.5,1.8c-8.7,1.8-16.2,3.4-23.8,4.7c-0.5,0.1-2.2-2.8-1.9-3.3
	c4.5-6.1,9.2-12.1,13.8-18c0.4,0.2,0.8,0.3,1.3,0.5c-0.3,1.1-0.3,2.7-1,3.3c-4.2,3.4-2.1,6.3-0.1,9.8
	C182,703.4,184.9,700.5,187.9,700.4 M177.6,702.8c-0.6-2.3-1.3-4.6-2.2-7.8c-2.9,3.7-4.8,6.2-7.5,9.6
	C171.8,703.9,174.3,703.4,177.6,702.8z"/>
<path class="st3" d="M788.8,759.9c-6.9-2.8-13.6-5.4-21.5-8.6c2.1-0.7,3.4-1.5,3.8-1.2c6.3,4.2,9.1-0.2,12.1-4.6
	c-1.1-2.7-2.2-5.3-3.3-7.9c0.6-0.3,1.2-0.5,1.8-0.8c3.7,6.9,7.7,13.6,10.9,20.7C793.8,760,791.4,760.7,788.8,759.9 M781.4,754.2
	c2.6,1,5.1,2,9,3.5c-2.3-4.2-3.9-7-6-10.7C782.8,749.9,781.7,751.9,781.4,754.2z"/>
<path class="st3" d="M714.4,199.9c-0.8-0.5-2-1.3-2-2c0.2-1.9,0.9-3.8,1.6-6.2c-2.5-1.7-5-3.4-7.4-5.1c-2.8,1.5-5.3,2.9-7.9,4.3
	c-0.3-0.6-0.6-1.1-0.9-1.7c6.1-4.2,12.1-8.5,18.2-12.7c0.8-0.5,2.7-0.9,3-0.5c0.7,0.8,1.1,2.3,0.8,3.4
	C718.2,186.2,716.4,192.9,714.4,199.9 M713.2,188.4c0.5,0,1.5,0.2,1.5,0.1c0.9-3,1.6-6,2.7-10.3c-3.7,2.6-6.3,4.5-9.3,6.6
	C710,186.1,711.3,187,713.2,188.4z"/>
<path class="st3" d="M241.7,791.4c2.6-6.5,5-12.6,7.4-18.8c0.5,0.1,1.1,0.2,1.6,0.2c-0.3,1.7-0.1,3.7-1,5c-2,3.3,0.2,4.8,2.2,6.6
	c2,1.8,3.8,3.7,6.8,1.5c1.3-1,3.1-1.3,4.7-1.9c0.2,0.5,0.5,1.1,0.7,1.6c-6.9,3.7-13.7,7.4-20.6,11c-0.5,0.3-2.1-0.2-2.1-0.4
	C241.3,794.8,241.5,793.3,241.7,791.4 M247,784.7c-1.1,2.8-2.2,5.6-3.8,9.6c4.1-2.2,6.9-3.8,10.3-5.7
	C251.2,786.9,249.3,785.5,247,784.7z"/>
<path class="st5" d="M851.5,606.7c6.3,4.3,12.3,8.7,18.3,13.3c0.6,0.5,1.3,2,1,2.4c-0.5,0.8-1.7,1.5-2.6,1.6
	c-7.4,0.1-14.8,0.1-22.6-0.7c1.5-0.4,3.1-1.2,4.5-1c3.9,0.6,4.7-1.8,5.6-4.6c1-2.9,1.6-5.3-1.8-7.1
	C852.9,609.9,852.2,608.1,851.5,606.7 M866.1,621.8c0.3-0.1,0.6-0.2,0.8-0.3c0.1-0.1,0.2-0.4,0.1-0.4c-2.5-2.1-5-4.2-7.9-6.6
	c-0.9,2.7-1.6,4.9-2.4,7.3C860.1,621.8,862.8,621.8,866.1,621.8z"/>
<path class="st3" d="M873.9,415.1c2.7,0.9,5,1.8,7.3,2.7c-1.8,1.7-3.4,3.7-5.5,5.1c-4.9,3.3-9.9,6.3-15.4,9.7
	c0.8-4.4-2-17.1-4.6-19.8C862.2,413.6,867.8,414.3,873.9,415.1 M868,416.9c0.1,2.3,0.2,4.7,0.4,7.7c3.7-2.4,6.4-4.1,10.1-6.4
	C874.5,417.6,871.6,417.3,868,416.9z"/>
<path class="st5" d="M384.9,867c-2.3,2.2-4.4,4.1-6.5,6c-0.6-2.7-1.4-5.4-1.6-8.2c-0.4-5.3-0.5-10.6-0.7-15.9c0-0.3,0.2-0.6,1-2.1
	c0.8,2.1,1.8,3.4,1.7,4.5c-0.5,3.8,1.2,5.4,4.7,6.7c3.8,1.4,5.8,0.3,7.7-2.8c0.6-1,1.9-1.5,2.8-2.3c0.4,0.4,0.8,0.8,1.1,1.2
	C391.8,858.3,388.5,862.5,384.9,867 M379.2,868.2c0.1,0.3,0.2,0.6,0.3,0.8c0.1,0.1,0.4,0.2,0.4,0.2c2.1-2.5,4.2-5.1,6.7-8
	c-2.9-0.9-5-1.6-7.4-2.3C379.2,862,379.2,864.7,379.2,868.2z"/>
<path class="st9" d="M436.2,861.1c4.3-3.8,13.3,0.1,14.7,6.4c1.2,5.2-1.3,11.5-5.8,14.3c-4.6,2.9-11.1,2.6-15.4-0.7
	c-5.1-3.9-5-10.2,0.7-15.2c0.7,0.3,0.8,0.5,0.9,0.7c-3.9,4.3-4.5,8.1-2,11.5c2.5,3.4,8.2,4.9,12.7,3.2c4.9-1.8,7.8-7,7.1-12.4
	c-0.7-5.1-5.1-8.1-12.6-8.1C436.1,861.1,436.2,861.1,436.2,861.1z"/>
<path class="st6" d="M121.8,607.6c-0.5-1.9-0.9-3.4-1.3-5c0.5-0.2,0.9-0.4,1.4-0.6c1,2.3,2,4.6,3.2,7.2c6.6-1.9,13.2-3.8,19.7-5.7
	c0.2,0.6,0.5,1.2,0.7,1.9c-3.1,1.1-6.1,2.3-9.2,3.3c-3.4,1.1-6.9,2.1-10.6,3.2c0.6,2.8,1.1,5.2,1.6,7.6c-0.6,0.2-1.2,0.3-1.8,0.5
	C124.3,616,123.1,612,121.8,607.6z"/>
<path class="st6" d="M639.6,862.8c1-0.2,1.6-0.3,2.2-0.4c-0.1,0.7,0.1,1.8-0.2,2c-5.2,2.1-10.5,4.2-15.8,6.2
	c-0.3-0.6-0.5-1.2-0.8-1.8c2.3-1.1,4.6-2.2,7-3.3c-2.4-6.7-4.8-13.2-7.1-19.7c0.7-0.3,1.5-0.5,2.2-0.8c2.5,6.4,4.9,12.7,7.5,19.4
	C636.2,863.9,637.7,863.4,639.6,862.8z"/>
<path class="st3" d="M344.5,860.4c-2.9-1.4-5.4-2.6-8-3.8c0.2-0.6,0.5-1.1,0.7-1.7c2.2,0.8,4.5,1.7,7.1,2.7c3-6.3,5.9-12.7,8.9-19.1
	c0.7,0.3,1.4,0.7,2,1c-2.7,6.2-5.4,12.5-8.2,19c2.2,1.2,4.5,2.5,6.8,3.8c-0.2,0.5-0.4,1-0.6,1.5
	C350.5,862.8,347.7,861.7,344.5,860.4z"/>
<path class="st3" d="M836.1,647.7c1-0.5,2.4-1.1,3.3-0.8c5.4,2.2,10.7,4.5,16.2,7c1.3-2.3,2.5-4.6,3.8-6.9c0.6,0.3,1.2,0.6,1.7,0.9
	c-2.4,5.5-4.9,11.1-7.3,16.6c-0.7-0.3-1.3-0.5-2-0.8c0.9-2.3,1.8-4.6,2.8-7.1C848.4,653.7,842.3,650.9,836.1,647.7z"/>
<path class="st4" d="M113.9,457.6c-1.3,0.5-2.7,0.9-3,1.7c-0.6,1.8-0.7,3.8-1.1,6.3c-2.2-3.2-1.5-12.8,1.4-18.7c0,2.5,0,5,0,7.7
	c7.2,0.9,13.9,1.7,20.7,2.5c0.1,0.3,0.2,0.7,0.4,1c-0.9,0.4-1.8,1.2-2.6,1.1C124.7,458.9,119.5,458.3,113.9,457.6z"/>
<path class="st6" d="M796.3,249.2c-1.6,0.2-3.2,0.4-4.2,1.3c-3.6,2.9-7.1,6-10.7,9c-0.9,0.7-2.1,0.9-3.2,1.3
	c-0.2-0.4-0.5-0.9-0.7-1.3c5.2-4.5,10.4-8.9,15.8-13.6c-1.6-2.1-3.2-4.1-4.7-6.1c0.5-0.4,1-0.8,1.5-1.2c4,4.6,7.9,9.1,11.9,13.7
	c-0.4,0.4-0.8,0.8-1.2,1.3C799.3,252.2,798,250.8,796.3,249.2z"/>
<path class="st3" d="M260.4,191.3c-1.8,1.3-3.4,2.4-4.9,3.4c-0.4-0.6-0.8-1.1-1.2-1.7c4.8-3.7,9.6-7.3,14.4-11
	c0.4,0.5,0.9,1,1.3,1.6c-1.9,1.6-3.8,3.3-5.9,5.1c4.2,5.5,8.4,11.1,12.6,16.6c-0.4,0.4-0.8,0.7-1.1,1.1c-0.8-0.5-1.8-0.8-2.4-1.5
	c-3-3.8-5.8-7.7-8.8-11.4C263.5,192.5,262,191.9,260.4,191.3z"/>
<path class="st6" d="M239.5,238.5c-2.6,2.8-5,5.3-7.7,8.2c-5.8-5.9-11.9-10.8-16.7-16.9c0.6-0.5,1.1-1.1,1.7-1.6
	c4.3,5.3,8.6,10.7,12.9,16c0.8-0.3,1.7-0.6,2.5-0.9c2.3-3,4.6-5.9,6.9-8.9c0.5,0.4,1.1,0.7,1.6,1.1
	C240.3,236.4,240,237.3,239.5,238.5z"/>
<path class="st10" d="M509.5,131.1c-0.4-6.9-0.4-13.6-0.4-20.7c-2.7-0.3-5.1-0.5-7.5-0.8c0-0.3,0.1-0.7,0.1-1c5.9,0,11.7,0,17.6,0
	c0,0.5,0,0.9,0,1.4c-2.3,0-4.7,0-7.4,0c-0.3,6.5-0.5,12.4-0.9,18.4C510.9,129.4,510.3,130.3,509.5,131.1z"/>
<path class="st5" d="M688.4,838.4c0.3,1.4,0.5,2.6,0.6,3.7c-0.9-0.7-2.2-1.1-2.7-2c-2.9-5.2-5.6-10.5-8.3-15.7
	c-3.7,1.8-7,3.3-10.3,4.9c-0.3-0.5-0.6-1.1-0.9-1.6c3.9-2.2,7.9-4.4,12.3-6.8C682.2,826.8,685.2,832.5,688.4,838.4z"/>
<path class="st5" d="M157.3,686.1c5.3-2.8,10.2-5.4,15.3-8.1c-1.7-3.7-3.3-7-4.9-10.4c0.5-0.3,1.1-0.5,1.6-0.8
	c2.2,3.9,4.3,7.8,6.8,12.3c-6.9,3.7-13.6,7.3-20.4,10.9c-0.3-0.3-0.7-0.6-1-1C155.4,688,156.2,687.1,157.3,686.1z"/>
<path class="st6" d="M206,247.8c3.9,3.4,7.5,6.6,11.8,10.4c2.5-3,4.8-5.9,7.2-8.9c0.5,0.5,1,0.9,1.6,1.4c-3,3.5-5.9,7-9.2,10.7
	c-6-5.3-11.7-10.5-17.5-15.6c0.4-0.5,0.8-1,1.2-1.6C202.7,245.4,204.2,246.5,206,247.8z"/>
<path class="st6" d="M150.7,668.8c-1.9,0.7-3.4,1.2-5,1.8c-0.3-0.6-0.6-1.3-0.8-1.9c6.2-3,12.4-6,18.9-9.1c-1.5-3.5-3-7-4.5-10.4
	c0.6-0.3,1.2-0.6,1.8-0.9c2,4.1,3.9,8.1,6.1,12.6C161.7,663.6,156.4,666.1,150.7,668.8z"/>
<path class="st6" d="M742.9,214.1c-1.3,1.5-2.4,2.8-4.1,4.7c3,2.4,5.9,4.8,8.8,7.2c-0.5,0.6-1,1.1-1.5,1.7c-3.4-3-6.9-6-10.7-9.3
	c5.3-5.9,10.5-11.7,15.7-17.5c0.6,0.5,1.2,1.1,1.8,1.6C749.7,206.3,746.4,210.1,742.9,214.1z"/>
<path class="st4" d="M873.8,447.9c4.5-0.4,8.6-0.8,12.6-1.2c0.1,0.7,0.1,1.4,0.2,2.1c-6.8,0.9-13.7,1.8-20.6,2.7
	c0.2,3.9,0.5,7.7,0.7,11.4c-0.6,0-1.2,0.1-1.9,0.1c-0.6-4.4-1.1-8.9-1.7-13.9C866.6,448.8,870,448.4,873.8,447.9z"/>
<path class="st3" d="M699,818c-1-1.6-1.8-2.8-2.8-4.2c-3.3,1.9-6.6,3.7-9.9,5.5c-0.3-0.5-0.7-1.1-1-1.6c3.8-2.4,7.6-4.9,11.8-7.6
	c4.1,7,8.7,13.2,12.1,20.1c-0.6,0.4-1.3,0.8-1.9,1.2C704.7,826.9,701.9,822.6,699,818z"/>
<path class="st6" d="M723,200.9c3.8-4.8,7.5-9.2,11.2-13.7c0.1-0.1,0.8,0.4,1.8,0.9c-4.2,5.6-8.3,11-12.6,16.7
	c3,2.5,5.9,4.9,8.7,7.2c-0.4,0.5-0.8,1.1-1.2,1.6c-3.7-2.7-7.3-5.4-11.2-8.3C720.8,203.9,721.8,202.6,723,200.9z"/>
<path class="st6" d="M827.2,306.3c0.3-0.7,1-1.6,1.4-1.5c3.5,1.1,6.9,2.3,10.3,3.4c-2.5,3.8-17.7,11.8-21.2,10.3
	c5.3-3.1,10.2-5.9,15.4-8.9C831,308.5,829.2,307.6,827.2,306.3z"/>
<path class="st8" d="M835.9,344.3c-0.8-0.3-1.5-0.7-2.6-0.7c-0.3,0.3-0.3,0.3,0,0c-0.6-2.7-1.5-5.2-2.2-7.9c1.8,0.2,3.5,1.2,4.9,0.9
	c1.4-0.3,2.6-2,3.9-3.1c-1.5-1-2.9-2.6-4.5-2.8c-3.6-0.4-4,2.6-4.8,5.2c-2.6-3.5-1.2-5.8,2.2-7c3.5-1.3,6.6-0.6,8.3,3.1
	c0.8,1.7,1.1,3.6,1.7,5.6c-1.5,0.3-2.9,0.5-4.4,0.8c-1.4,0.3-2.8,0.8-4.6,1.4c0.9,1.4,1.6,2.3,2.2,3.5
	C835.9,343.9,835.9,344.1,835.9,344.3z"/>
<path class="st8" d="M430.8,865.9c4,0.1,8.4,0.1,12.5,1.2c0.9,0.2,1.6,4.4,1,6.3c-1,3.2-3.8,4.5-7.2,3.6c-1.6-0.4-3.1-1-5.1-1.6
	c0.8-1.8,1.8-3.8,2.6-5.9c0.9-2.4,0.2-3.5-2.9-3C431.3,866.5,431.2,866.3,430.8,865.9 M436,873.6c1.9,3.5,4.2,2.2,5.7-0.1
	c0.8-1.3,0.2-3.5,0.3-5.3c-1.8,0.9-3.7,1.7-5.5,2.7C436,871.1,436.1,872.1,436,873.6z"/>
<path class="st8" d="M878,436.3c2.5-0.1,4.6-0.1,6.8-0.1c0,0.6,0,1.1,0,1.7c-7.7,1.4-15.4,2.8-23.1,3.8c-0.1-0.8-0.2-1.6-0.3-2.4
	C866.8,438.3,872.2,437.3,878,436.3z"/>
<path class="st8" d="M823.6,331.3c0.9-6,5.5-8,10.5-8.9c5-0.9,9.1,1.2,12,5.4c1.1,1.6,1.7,3.6,2.2,5.8c-0.6,0.4-0.9,0.5-1.2,0.1
	c-2.7-7-6-9.7-11.3-9.6c-5.6,0.2-9.2,3.1-11.1,8.7C824.1,332.1,823.8,331.7,823.6,331.3z"/>
<path class="st6" d="M664.7,841.3c-1.6-3.8-4.2-6.9-4-10.8c5.2,4.9,11.2,18.5,9.8,22C668.4,848.5,666.7,845.1,664.7,841.3z"/>
<path class="st8" d="M842.7,631.3c1.6-0.1,3.1-0.2,4.4,0.3c6,2.2,11.9,4.5,17.5,7.7C856.8,638.2,849.3,636.3,842.7,631.3z"/>
<path class="st6" d="M309.9,834.8c2.8-5,5.4-9.6,8.1-14.2c0.7,0.4,1.3,0.7,2,1.1c-3.7,6.8-7.4,13.6-11.1,20.4
	c-0.6-0.3-1.2-0.5-1.8-0.8C308,839.3,308.8,837.2,309.9,834.8z"/>
<path class="st9" d="M111.5,542.5c-0.8-0.1-1.5-0.1-2.2-0.2c1.1-1.9,2.1-3.5,3.3-5.5c0.1,0.1,0.9,0.8,2.1,1.8c0.6-0.9,1.3-2,2-3
	c0.3,0.1,0.6,0.2,0.9,0.3c-0.1,1.2-0.3,2.4-0.4,3.7c1.2,0.1,2.4,0.2,5.1,0.4c-2.5,1.2-3.7,1.7-4.9,2.2c0.5,1.1,1,2.2,1.5,3.3
	c-0.2,0.2-0.5,0.4-0.7,0.6c-0.9-0.7-1.8-1.4-2.5-2.1c-1.1,0.6-2.3,1.3-3.4,1.9c0.1-0.6,0.3-1.2,0.6-2.4
	C112.5,542.8,112,542.7,111.5,542.5z"/>
<path class="st8" d="M365,862c-0.9,2.2-1.7,4.1-2.7,6.3c-2.1-4.2,4.7-21.8,8.7-22.4C369,851.4,367.1,856.5,365,862z"/>
<path class="st8" d="M494.7,120c0.1,4.3,0.1,8,0.1,12c-3-1.3-4-12.3-2.5-23.1C494.5,110,494.5,110,494.7,120z"/>
<path class="st4" d="M119.4,414c6.8,1.5,13.1,2.9,19.5,4.4c-0.1,0.6-0.2,1.2-0.3,1.9c-7.8-0.2-15.1-3-22.7-4.3
	c0-0.5-0.1-0.9-0.1-1.4C116.9,414.3,117.9,414.1,119.4,414z"/>
<path class="st3" d="M146.7,646.7c-3.7,1.4-7,2.7-10.3,4c2.3-4.5,18.5-10.7,22.4-9.1C154.5,643.4,150.8,644.9,146.7,646.7z"/>
<path class="st7" d="M552.1,125.1c-0.5,3.4-0.9,6.3-1.4,9.3c-2.7-1.6-1.5-17.2,1.6-23.1c0.5,0,0.9,0,1.4,0
	C553.2,115.8,552.7,120.3,552.1,125.1z"/>
<path class="st3" d="M819.1,681.3c6.9,3.6,13.5,7.3,21.2,11.6c-2.2,0.5-3.2,1.1-3.7,0.8c-5.8-3.2-11.6-6.4-17.3-9.8
	C818.8,683.7,819,682.3,819.1,681.3z"/>
<path class="st5" d="M757.2,228.2c-1.7,1.8-3.1,3.4-4.7,5.1c-1.4-2.9,4.2-10,14-18.5C767.7,216.9,767.7,216.9,757.2,228.2z"/>
<path class="st5" d="M238.3,224.7c-3-3.3-5.7-6.3-8.6-9.5c4-0.9,17.3,13.4,16.2,17.3C243.3,229.9,240.9,227.4,238.3,224.7z"/>
<path class="st7" d="M124.4,475.3c-5.8-0.4-11.2-0.7-16.5-1c4.5-3.2,21.5-1.6,23.5,1.5C129,475.6,126.9,475.5,124.4,475.3z"/>
<path class="st9" d="M880.9,569c-0.3,1.4-1,2.5-1.6,3.6c1.2,0.3,2.4,0.6,4,1c-2,1.3-3.5,2.3-5.5,3.6c0.2,0.2-0.4-0.5-1.2-1.5
	c-0.9,0.7-1.9,1.5-3,2.3c-0.2-0.2-0.5-0.3-0.7-0.5c0.5-1.1,1-2.3,1.5-3.5c-1.1-0.5-2.2-1-3.3-1.5c0-0.3,0.1-0.5,0.1-0.8
	c1.2-0.1,2.3-0.1,3.8-0.2c-0.1-1.1-0.3-2.3-0.4-3.4c0.3-0.2,0.6-0.3,0.8-0.5c0.7,1,1.4,2,2,3C878.5,570.1,879.5,569.4,880.9,569z"/>
<path class="st9" d="M457.2,886.1c0.9-1,1.8-1.6,2.8-2.2c-0.9-1-1.7-2-2.5-3c0.2-0.2,0.4-0.5,0.5-0.7c1.2,0.5,2.3,1,3.7,1.6
	c0.2-1.3,0.4-2.5,0.5-3.7c0.3,0,0.7-0.1,1-0.1c0.3,1.2,0.6,2.4,1,3.8c1.1-0.3,2.2-0.6,3.8-0.9c-2.2,3.2-4.2,6-6.3,9
	c-0.3-1.1-0.6-2.3-0.8-3.4C459.6,886.4,458.4,886.4,457.2,886.1z"/>
<path class="st9" d="M847.1,334c0.3,0,0.5,0,1.1-0.1c1,8-3.7,12.2-12.2,10.7c-0.2-0.5-0.2-0.7,0.3-1.2
	C843.6,344,846.6,341.3,847.1,334z"/>
<path class="st9" d="M823.4,331.6c0.4,0.1,0.7,0.5,1.2,1.5c1.2,5.4,2.7,9.8,8.4,10.8c0,0-0.1,0,0,0c-1.3,0.2-3.1,1-3.9,0.4
	C824.9,341.4,822.9,337.2,823.4,331.6z"/>
<path class="st9" d="M246.7,759.4c1.4,1.5,2.5,2.7,3.7,4c-0.2,0.2-0.5,0.4-0.7,0.7c-3-3.2-6-6.4-8.9-9.7c0.1-0.1,0.1-0.2,0.2-0.4
	C242.7,755.7,244.6,757.4,246.7,759.4z"/>
<path class="st9" d="M436.1,861.1c-1,0.2-1.9,0.4-2.9,0.7c0-0.2-0.1-0.3-0.1-0.5c0.8,0,1.7,0,2.8-0.1
	C436.2,861.1,436.1,861.1,436.1,861.1z"/>
<path class="st11" d="M186.8,465.8c6.4-58.4,27.2-110.7,62.9-156.7c51.8-66.8,119.8-107,203.4-119.8
	c159.3-24.5,313.4,79.8,350.9,237c39.3,164.8-57.9,330.5-220.7,376.2c-173.5,48.7-354.2-60.4-391.3-236.4
	C184.9,533.1,183.1,499.9,186.8,465.8 M511.9,446.5c0-8.8,0.1-17.7,0-26.5c-0.1-5.4-2.7-7.9-8-8c-3-0.1-6,0-9,0
	c-6.3,0-8.6,2.3-8.6,8.8c0,11,0,22,0,33c0,5.7-2.5,8.1-8.3,8.2c-3.3,0.1-6.7-0.1-10,0c-4.6,0.2-7,2.6-7.2,7.2c-0.1,3.5,0,7-0.1,10.5
	c-0.2,5.8-2.6,8.2-8.2,8.3c-3,0.1-6,0.1-9,0c-5.5-0.1-8.1-2.7-8.3-8.4c-0.1-3.5,0.1-7,0-10.5c-0.2-4.6-2.5-6.9-7.2-7.1
	c-3.2-0.1-6.3,0-9.5,0c-6.1-0.1-8.5-2.4-8.5-8.4c0-10.7,0-21.3,0-32c0-7.5-2-9.6-9.3-9.6c-2,0-4,0-6,0c-8.5,0-10.3,1.8-10.3,10.2
	c0,37.5,0,75,0,112.5c0,7,0,14,0,21c0,7.2,2.1,9.3,9.1,9.3c2.3,0,4.7,0,7,0c7.5,0,9.5-2,9.5-9.4c0-19.7,0-39.3,0-59
	c0-6.1,2.3-8.5,8.3-8.6c2.7,0,5.3,0,8,0c6.8,0,8.8,2.1,8.8,9c0,11.3-0.1,22.7,0,34c0,5.4,2.6,7.9,8,8c3.2,0.1,6.3,0.1,9.5,0
	c5.7-0.1,8.1-2.4,8.1-8.3c0.1-8.8,0-17.7,0-26.5c0-16.3,0-16.3,16.2-16.2c7.1,0,9.2,2.1,9.2,9.2c0,17.3,0,34.7,0,52
	c0,15.8,0,15.8,15.7,15.8c8,0,10-2,10-10C511.9,519.2,511.9,483.3,511.9,446.5 M663.3,491.5c0,21.5,0,43,0,64.5c0,6.9,2.1,9,8.9,9
	c2.7,0,5.3,0,8,0c6.5,0,8.7-2.2,8.7-8.6c0-11.2,0-22.3,0-33.5c0-6.6,2.3-8.8,9-8.8c10.7,0,21.3,0,32,0c7.8,0,9.7,1.9,9.7,9.7
	c0,10.8,0,21.7,0,32.5c0,6.6,2.2,8.7,8.6,8.8c2.8,0,5.7,0,8.5,0c6.2-0.1,8.5-2.2,8.5-8.3c0.1-11.7,0-23.3,0-35c0-25,0-50,0-75
	c0-6.4-2.3-8.7-8.7-8.7c-2.7,0-5.3,0-8,0c-6.5-0.1-8.7-2.3-8.8-8.6c0-3.3,0.1-6.7-0.1-10c-0.3-4.9-2.8-7.4-7.6-7.4
	c-11.8-0.1-23.7-0.1-35.5,0c-5.1,0-7.6,2.6-7.8,7.6c-0.1,3.2,0,6.3,0,9.5c-0.1,6.5-2.3,8.8-8.6,8.9c-2.5,0-5,0-7.5,0
	c-7.4,0-9.4,2.1-9.5,9.5C663.3,461.9,663.3,476.2,663.3,491.5 M257.3,442.5c2.6-1.5,5.1-4.1,7.7-4.2c11.6-0.5,23.3-0.2,35-0.2
	c4.9,0,7.4,2.4,7.7,7.3c0.2,3.7,0,7.3,0.1,11c0.2,4.8,2.7,7.3,7.5,7.5c3.5,0.1,7,0.1,10.5,0c5-0.2,7.5-2.8,7.6-7.9
	c0.1-12,0.1-24,0-36c0-5.4-2.6-7.9-8-7.9c-20.2,0-40.3,0-60.5,0c-5.3,0-7.8,2.6-7.9,8c-0.1,3.7,0.1,7.3-0.1,11
	c-0.2,4.3-2.6,6.8-7,6.9c-3.5,0.1-7,0-10.5,0.1c-5.5,0.1-7.9,2.4-8,7.9c-0.1,4.7,0,9.3,0,14c0,23.3,0,46.6,0,70
	c0,7.1,2.1,9.1,9.3,9.2c3,0,6,0,9,0c4.7,0.1,7,2.7,7.3,7.2c0.2,3.5,0,7,0.1,10.5c0.1,5.8,2.4,8.3,8.1,8.3c11.7,0.1,23.3,0.1,35,0
	c5.1,0,7.6-2.4,7.8-7.6c0.2-3.5,0-7,0.1-10.5c0.1-5.4,2.5-7.7,8-7.8c3.3-0.1,6.7,0,10,0c4.5-0.1,7.2-2.3,7.4-7
	c0.2-4.2,0.2-8.3,0-12.5c-0.2-4.1-2.6-6.4-6.7-6.5c-3.8-0.2-7.7-0.1-11.5,0c-4.6,0.1-7.1,2.5-7.3,7.1c-0.2,3.8,0.1,7.7-0.1,11.5
	c-0.2,4.4-2.3,7.3-7.1,7.4c-12.2,0.1-24.3,0.1-36.5,0c-4.5,0-7.1-2.7-7.1-7.2C257,502.3,257,472.8,257.3,442.5 M554.7,482.4
	c0,1.7,0,3.3,0,5c0.1,5.8,0.9,6.5,6.8,6.6c9.6,0.1,9.6,0.1,9.7,9.7c0,0.3,0,0.7,0,1c-0.2,4.3,1.7,6.5,6.2,6.3c6.7-0.2,13.3,0,20,0
	c6.1,0,7.2-1.1,7.3-7.2c0.1-9.7,0.1-9.7,9.7-9.8c0.5,0,1,0,1.5,0c3.1,0.1,5.6-1.2,5.4-4.4c-0.2-4.2,2.3-9.1-2.7-12.3
	c-0.3-0.2-0.6-0.2-1-0.2c-10.8-0.1-13.8-1.7-12.9,9.9c0,0.3,0,0.7,0,1c0,4-1.7,6.2-6,6.1c-7-0.1-14-0.1-21,0
	c-4.4,0.1-6.4-1.9-6.4-6.3c0.1-17.8,0-35.6,0-53.4c0-4.3,1.8-6.4,6.3-6.3c6.7,0.1,13.3,0,20,0c5.8,0,7,1.2,7.1,7c0,1.5,0,3,0,4.5
	c0,3.8,2,5.4,5.6,5.4c1.7,0,3.3-0.1,5,0c4.5,0.2,6.3-2,6.2-6.4c-0.1-7,0-14,0-21c0-5.6-1.1-6.6-6.9-6.6c-10.3,0-20.6,0-31,0
	c-11.7,0-11.8,0-12.3,11.7c-0.2,3.5-1.7,5.2-5.1,5.3c-1.5,0-3,0-4.5,0c-6.1,0-6.9,0.8-6.9,7C554.7,450.5,554.7,466,554.7,482.4
	 M575.7,651c-7.6,1.3-11.2,4.5-12.4,11.5c-1,6.4-0.2,12.4,5.6,16.5c4.6,3.3,10.3,2.6,15.4-1.1c1,0.8,2,1.7,3.4,2.8
	c0-5.2,0-9.4,0-13.1c-3.8,0-7.2,0-10.7,0c0,0.5-0.1,1-0.1,1.5c1.3,0.2,2.5,0.4,3.8,0.5c1.4,0.1,2.8,0.2,4.2,0.3
	c-1.4,7-5.5,9.8-11.4,8.2c-4.7-1.3-7.4-5.9-7.3-12.3c0.1-6.5,2.9-10.9,7.8-11.8c4.2-0.8,7.9,0,10.2,4.2c0.6,1.1,1.9,1.7,2.8,2.6
	C586,653.4,584,651.8,575.7,651 M479.6,652.1c0,7.2,0,14.4,0,21.6c-0.5,0.1-0.9,0.2-1.4,0.3c-4.1-6.3-8.2-12.7-12.5-18.8
	c-1.1-1.5-3-2.5-5.6-4.6c0,10-0.1,18.1,0.1,26.2c0,1.1,1.1,2.2,1.6,3.3c0.4-1.1,1.2-2.1,1.3-3.2c0.1-6.4,0.1-12.8,0.1-20.6
	c5.2,7.8,9.5,14.4,14,20.9c1,1.4,2.7,2.2,5,4c0-9.8,0.1-18-0.1-26.1C481.9,654,481,653,479.6,652.1 M557.4,656.3
	c-5.4-6-13.2-7.1-19.1-2.6c-5.5,4.2-7.1,14.2-3.3,21c3.3,5.8,10.8,8.1,17.4,5.2C560.1,676.5,562.5,666.4,557.4,656.3 M512.8,670.7
	c0.1-2.6,0.5-5.3,0.2-7.9c-0.6-5.1-3.2-9-8.2-10.9c-7.3-2.7-15.1,0.6-17.6,7.6c-3.1,8.4,0.1,17.7,7,20.5
	C501.7,683.1,509.3,679.6,512.8,670.7 M601.5,671.8c-0.4,0.7-1.2,1.5-1,2c1.7,6,9.5,9.5,15.4,6.2c2.3-1.3,4.6-4.7,4.8-7.2
	c0.1-2.2-2.3-5.2-4.5-6.8c-2-1.5-5-1.6-7.5-2.4c-2.9-0.9-5.9-2.6-4.3-5.9c1-1.9,4.3-3.8,6.5-3.7c2,0,4.1,2.6,6.1,4.1
	c1,0.7,1.9,1.6,2.8,2.3c-1.4-8.5-8.2-12-14.4-8.1c-2.1,1.3-4.1,4.4-4.1,6.7c0,2.2,2.2,5.1,4.2,6.6c2,1.5,5,1.7,7.5,2.5
	c2.8,0.9,5.6,2.1,4.9,5.8c-0.7,3.8-3.8,4.6-7.2,4.6C605.9,678.5,604.6,674.5,601.5,671.8 M424.2,300.2c5.5-1,9.5,0.4,11.3,6.3
	c0.3,0.9,1.9,1.3,3.5,2.4c-1.8-8.9-6.2-12.5-13.2-11.8c-7.3,0.7-12.2,7.3-11.8,15.9c0.3,8.2,5.3,13.9,12.5,14.1
	c6.9,0.2,11.2-3.5,11.6-11.2c-1.3,0.7-2.4,1.7-3,2.9c-3.1,6.5-11.1,7.4-15.4,1.8C415,314.4,416.8,304.7,424.2,300.2 M423.8,678.4
	c1.6-2.6,3.1-5.1,4.7-7.7c-0.6-0.4-1.2-0.9-1.8-1.3c-0.9,1.1-2.1,2-2.6,3.2c-1.5,3.7-4.1,5.5-8.1,5.5c-4.2,0-7.5-1.9-8.4-5.7
	c-0.9-3.9-1-8.2-0.3-12.1c0.8-4,4-6.3,8.5-6.4c4.2-0.1,6.9,1.8,8.3,5.8c0.4,1.1,1.8,1.9,2.8,2.9c-0.4-11.5-10.4-13.2-16.6-10.2
	c-6.9,3.4-9.5,14-5.5,22C408.3,681,415.4,682.8,423.8,678.4 M443,308.5c0,5.2-0.1,10.3,0.1,15.5c0,0.7,0.9,1.3,1.4,2
	c0.5-0.7,1.4-1.3,1.5-2c0.2-3.3,0.1-6.6,0.1-9.8c9.6-0.5,10.6,0.2,13.4,9.3c0.3,1,1.5,1.8,2.3,2.7c0.6-0.4,1.2-0.8,1.8-1.2
	c-1.9-4.2-3.9-8.4-5.9-12.7c3.2-1.5,5.4-4.7,4.1-9.1c-1.3-4.6-5.3-5-9.2-5.2c-3.1-0.1-6.2,0-9.5,0C443,301.6,443,304.6,443,308.5
	 M498.1,298.4c-3.4,9.1-6.8,18.1-10.7,28.4c5.8-1.9,4.7-7,7.1-9.6c3.6,0,7.3,0,10.4,0c3,2.5,1.3,8.2,7.3,9.2
	c-3.4-9.2-6.2-17.4-9.4-25.4C502.4,299.7,500.2,299,498.1,298.4 M453.9,679.1c0-7.8,0.1-15.7,0-23.5c0-1.2-0.8-2.4-1.3-3.6
	c-0.5,1.3-1.5,2.5-1.6,3.8c-0.2,2.8-0.1,5.5-0.1,8.4c-5.3,0-10,0-15,0c0-2.6,0-4.9,0-7.2c0-4.4,0-4.4-3-4.5c0,8.3-0.1,16.6,0.1,24.9
	c0,0.9,1,1.8,1.6,2.7c0.5-0.2,1-0.4,1.5-0.6c0-4.1,0-8.2,0-12.3c5.2,0,9.9,0,14.9,0c0,3.6-0.2,6.9,0.1,10.2
	C451.2,678.3,452.6,679.1,453.9,679.1 M556.6,320.1c2.6-7.2,5.3-14.4,8-21.9c-1.2-0.1-2-0.3-2-0.2c-3.3,7.6-6.5,15.2-10,23.4
	c-2.6-7.3-5-14.1-7.6-20.8c-0.5-1.2-2-2-3.1-3c2.2,9.3,5.1,17.6,8.2,25.8c0.4,1,1.6,2.3,2.5,2.4c0.8,0,1.9-1.3,2.6-2.2
	C555.7,322.8,555.9,321.8,556.6,320.1 M387,672.5c0-1.9,0-3.8,0-5.7c3.8-0.3,7-0.6,10.2-0.9c0-0.5-0.1-1.1-0.1-1.6
	c-3.3-0.2-6.6-0.4-9.8-0.5c0-3.2,0-6.1,0-9.1c5.2-0.3,10.1-0.5,15.1-0.7c-0.1-0.5-0.1-1.1-0.2-1.6c-6,0-12,0-17.9,0
	c0,9.4,0,18.4,0,27.1c6.5,0,12.7,0,19,0c0-0.5,0-0.9,0-1.4c-5.3,0-10.5,0-16,0C387.1,675.9,387.1,674.6,387,672.5 M581.5,323.6
	c-3.4,0-6.9,0-10.2,0c0-4.1,0-7.5,0-10.8c3.5-0.3,6.7-0.6,9.9-0.8c0-0.6-0.1-1.2-0.1-1.8c-3.3,0-6.6,0-9.7,0c0-3.6,0-6.5,0-10.3
	c5.2,0,10.1,0,15,0c0-0.4-0.1-0.9-0.1-1.3c-6,0-11.9,0-18,0c0,9.1,0,18.1,0,27c6.5,0,12.8,0,19,0c0-0.4,0.1-0.9,0.1-1.3
	C585.7,323.9,584.1,323.8,581.5,323.6 M473.8,323.6c-8.2-1.3-1.5-7.4-4.5-10.8c4.4-0.3,7.7-0.5,11-0.8c-0.1-0.7-0.1-1.3-0.2-2
	c-3.3,0-6.7,0-9.9,0c0-3.5,0-6.3,0-10.1c5.2,0,10.1,0,15.1,0c0-0.5-0.1-1-0.1-1.5c-5.9,0-11.9,0-17.9,0c0,9.1,0,18.3,0,26.8
	c6.6,0,12.7,0,18.9,0c0-0.6,0-1.2-0.1-1.7C482.4,323.6,478.6,323.6,473.8,323.6 M514.3,300.4c1.5,0.1,2.9,0.1,4.5,0.2
	c0.1,1.3,0.2,2.2,0.2,3.2c0,6.6,0,13.3,0.1,19.9c0,0.7,0.8,1.5,1.2,2.2c0.6-0.7,1.4-1.4,1.7-2.2c0.3-1.1,0.1-2.3,0.1-3.5
	c0-6.5,0-13.1,0-19.5c3.6-0.3,6.4-0.5,9.2-0.8c-0.1-0.5-0.1-1-0.2-1.5c-7,0-14,0-21.1,0c-0.1,0.4-0.1,0.9-0.2,1.3
	C511,300,512.2,300.2,514.3,300.4 M636.4,652c-4.9,0-9.7,0-14.6,0c0,0.7,0,1.4,0.1,2.1c3,0.2,6,0.4,9.3,0.6c0,8.7,0,16.9,0,25.2
	c0.9,0,1.8,0,1.8,0c0.5-8.4,1-16.8,1.5-25.2c3.1-0.3,5.9-0.5,8.7-0.8c0-0.6-0.1-1.3-0.1-1.9C641.2,652,639.3,652,636.4,652
	 M371.2,655.1c3-0.4,6-0.8,9-1.3c-0.1-0.4-0.1-0.8-0.2-1.2c-7,0-14,0-21.1,0c0,0.5-0.1,1-0.1,1.4c2.9,0.2,5.9,0.4,9.2,0.6
	c0,7.5-0.1,14.7,0.1,22c0,1.1,1,2.2,1.6,3.3c0.4-1,1.2-2.1,1.3-3.1C371.1,669.9,371,662.9,371.2,655.1 M517,664.5
	c0,5.1,0,10.2,0,14.9c6,0,11.4,0,16.8,0c0-0.5,0-1.1,0-1.6c-4.5,0-9.1,0-13.9,0c0-9.2,0-17.5,0-25.7c-0.4-0.1-0.8-0.3-1.2-0.4
	c-0.5,1-1.5,1.9-1.5,2.9C516.9,657.5,517,660.5,517,664.5 M535,316.5c0,2.1-0.1,4.3,0.1,6.4c0.1,1.1,0.9,2.1,1.3,3.1
	c0.5-0.9,1.5-1.9,1.6-2.8c0.1-7.4,0.1-14.9,0-22.3c0-0.9-1-1.9-1.5-2.8c-0.5,1-1.3,2-1.3,3.1C534.9,305.9,535,310.7,535,316.5
	 M593,668.5c0,3-0.1,6,0.1,8.9c0,0.9,0.9,1.7,1.3,2.6c0.5-0.8,1.5-1.5,1.5-2.3c0.1-7.8,0.1-15.5,0-23.3c0-0.8-1-1.5-1.5-2.3
	c-0.5,0.9-1.3,1.7-1.3,2.6C592.9,658.9,593,663.2,593,668.5z"/>
<path class="st1" d="M389.8,131.2c-0.4-0.5-0.5-1.3-0.6-2c0.3,0.2,0.7,0.5,1.2,1C390.4,130.6,390.2,130.8,389.8,131.2z"/>
<path class="st1" d="M672,155c0.1-0.4,0.4-0.6,0.6-0.7c0.1,0.2,0.2,0.5,0.1,1C672.5,155.4,672.4,155.3,672,155z"/>
<path class="st1" d="M657.6,146.7c-0.2,0-0.3-0.1-0.4-0.2C657.4,146.5,657.6,146.5,657.6,146.7z"/>
<path class="st1" d="M165.5,306.3c-0.1-0.2,0.2-0.7,0.7-0.9C166.2,305.8,166,305.9,165.5,306.3z"/>
<path class="st1" d="M163.5,304.3c0.3,0,0.4,0.1,0.5,0.2C163.7,304.5,163.5,304.5,163.5,304.3z"/>
<path class="st1" d="M760,782.1c0.4,0.4,0.6,1,0.8,1.7c-0.3-0.2-0.7-0.3-1.2-0.8C759.5,782.6,759.6,782.4,760,782.1z"/>
<path class="st1" d="M771.2,769.9c0.1,0.2,0,0.6-0.3,1C770.7,770.6,770.8,770.4,771.2,769.9z"/>
<path class="st12" d="M305.3,819.4c-1.2,3.7-2,7.4-4,10.1c-2.7,3.4-6.7,3.4-10.3,1c-3.6-2.4-4.9-5.8-3.2-10c1.6-4,4.1-7.5,8.8-7.7
	C300.8,812.6,303.9,814.8,305.3,819.4z"/>
<path class="st1" d="M809.9,729.1c0.4,0,0.7,0.2,0.9,0.3c-0.3,0.1-0.6,0.2-1.1,0.2C809.5,729.5,809.8,729.2,809.9,729.1z"/>
<path class="st13" d="M303.6,169.3c-1-1.8-1.8-3.2-2.8-5.1c2.3-1.2,4.5-2.6,6.9-3.6c1.1-0.4,3-0.3,3.6,0.4c1,1.1,2.1,3.5,1.6,4.2
	c-1.8,2.4-4.2,4.3-6.6,6.2C306.2,171.6,304.7,170.3,303.6,169.3z"/>
<path class="st12" d="M575,135.1c-5.3,2.2-9.5,1.4-11.9-2c-2.3-3.3-1.8-9.7,1.1-13.1c2.9-3.4,6.6-3.7,10.4-1.8
	C580.2,120.8,580.5,128.6,575,135.1z"/>
<path class="st13" d="M137.7,390.2c4.7,4.5,5.3,8.7,2.1,12.8c-2.7,3.5-8.9,3.8-13.6,0.8c-3.9-2.5-5-7-2.7-11.3
	C125.7,388,130.4,387.1,137.7,390.2z"/>
<path class="st12" d="M527.6,876.7c0.7,4.9,0.4,9.1-4.3,11.5c-4.5,2.3-9.2,0.7-11.4-3.8c-2.7-5.5-0.8-12.3,4-14.2
	C521,868.3,525.2,870.4,527.6,876.7z"/>
<path class="st13" d="M883,523.6c-1.7,0.4-3,0.8-4.3,0.9c-5.3,0.2-9.3-2.6-10.1-7c-0.8-4.6,1.3-8.3,5.7-9.7c5-1.6,10.7,0.2,12.7,4.1
	C889.2,516.1,887.9,520.1,883,523.6z"/>
<path class="st13" d="M825.8,711.5c-4.5,4.2-7.7,4.5-12.3,1.6c-3.6-2.3-6.2-5.2-4.9-9.9c1.4-5.3,6.2-7.9,11.2-6.1
	C826.6,699.5,828.9,704.6,825.8,711.5z"/>
<path class="st14" d="M124,428.5c-0.1,3-0.4,5.6-0.6,8.6c-3.3-0.6-6-1.1-10.2-1.9c1.9-3.7,3.5-6.9,5.1-10.1
	C120.2,426.1,122,427.1,124,428.5z"/>
<path class="st14" d="M817.9,293.3c-1.5-2-2.8-3.7-4.4-5.8c2.6-1.7,5-3.3,8.9-5.8c1.1,4.4,3,8.1,2.4,11.4
	C824.3,295.6,820.6,295.6,817.9,293.3z"/>
<path class="st14" d="M122.5,560.8c0.3,2,0.5,3.6,0.7,5.5c-3,0.5-5.7,0.9-8.9,1.4c0.2-4.2-3.9-8.8,1.6-11.5
	C119.2,554.6,121.4,557.2,122.5,560.8z"/>
<path class="st13" d="M376.4,138.9c2.2,7,1,10.9-3.6,13c-4.6,2-9.1,0.2-11.4-4.7c-2.6-5.5-1.4-10.6,3.1-12.9
	C369,131.7,372.8,133.1,376.4,138.9z"/>
<path class="st14" d="M320.5,844c2.8-5.7,5.3-5.8,12.6-1.1c-0.1,0.5-0.1,1-0.3,1.4c-1,2.1-2.1,4.1-3.8,7.4
	C325.9,849,323.2,846.6,320.5,844z"/>
<path class="st14" d="M586.9,870c1.3,2.7,2.2,5.4,3.3,8.6c-2.8,0.6-5,1.5-7.2,1.3c-1.8-0.2-4.7-1.7-4.8-2.7
	c-0.1-1.8,1.2-4.2,2.7-5.5C582.3,870.6,584.6,870.5,586.9,870z"/>
<path class="st14" d="M836.8,674.9c0.9-1.8,1.7-3.3,2.6-5.1c2.7,1.4,5.2,2.7,8.1,4.2c-2.6,3.4-2.4,9.1-8,8.3
	C836,681.9,835.2,678.6,836.8,674.9z"/>
<path class="st14" d="M529.4,112.9c3.1-0.3,6.1-0.6,9-0.1c0.9,0.2,2.2,2.4,2,3.4c-0.4,1.5-1.6,3.6-2.9,4c-2.6,0.7-5.4,0.5-8.6,0.6
	C529,117.8,529.1,115.5,529.4,112.9z"/>
<path class="st14" d="M627.4,135.2c0.7,0.6,1.4,1.5,1.5,2.5c0.2,2.1,0.1,4.2,0.1,6.8c-2.5-0.9-4.6-1.6-7-2.5
	C623.9,139.6,625.5,137.5,627.4,135.2z"/>
<path class="st14" d="M721.7,817.6c-2.6-2-5.1-4-8-6.3c1.9-1.4,3.7-2.7,6.3-4.5c0.8,3.7,1.6,6.9,2,10.4
	C721.7,817.6,721.7,817.6,721.7,817.6z"/>
<path class="st14" d="M721.7,817.7c0.1-0.2,0.3-0.5,0.5-0.7c0,0.1-0.1,0.3-0.3,0.6C721.7,817.6,721.7,817.6,721.7,817.7z"/>
<path class="st15" d="M474.2,112.8c1.7,2.7,3.2,5.7,5.2,9.5c-3,0.2-5.2,0.4-8.1,0.6C472.3,119.3,473.2,116.2,474.2,112.8z"/>
<path class="st16" d="M113.5,493.6c-1.2-0.6-2-0.9-3.8-1.7c4.2-1.4,7.3-2.5,10.5-3.6c0,2.7,0,5,0,7.7
	C117.8,495.1,115.9,494.4,113.5,493.6z"/>
<path class="st14" d="M149.1,339c2.1,0.2,3.7,0.3,6.3,0.5c-1.2,2.5-2.1,4.6-3.2,6.8c-2.5-2.6-4.6-4.8-7-7.3
	C146.4,339,147.5,339,149.1,339z"/>
<path class="st17" d="M199.6,265.9c-0.6,2.2-1.5,4.4-2.8,7.4c-2.3-3.6-4-6.2-6.5-10.1C194.2,264.3,196.8,265,199.6,265.9z"/>
<path class="st17" d="M190.8,263.6c-0.1,0-0.1-0.1-0.1-0.1S190.8,263.5,190.8,263.6z"/>
<path class="st17" d="M177.3,702.9c-2.9,0.5-5.5,1-9.4,1.8c2.7-3.5,4.7-6,7.5-9.6C176.3,698.2,177,700.5,177.3,702.9z"/>
<path class="st17" d="M781,754.1c0.7-2.2,1.8-4.2,3.3-7.1c2.1,3.8,3.7,6.5,6,10.7C786.5,756.2,784,755.2,781,754.1z"/>
<path class="st17" d="M712.9,188.2c-1.6-1.1-2.9-2.1-4.6-3.4c3-2.1,5.5-4,9.3-6.6c-1.1,4.2-1.9,7.2-2.7,10.3
	C714.8,188.6,713.8,188.4,712.9,188.2z"/>
<path class="st17" d="M247.2,784.4c2.1,1.1,4,2.5,6.4,4.2c-3.4,1.9-6.3,3.4-10.3,5.7C244.8,790.3,245.9,787.5,247.2,784.4z"/>
<path class="st14" d="M865.8,621.8c-3,0-5.6,0-8.9,0c0.8-2.4,1.5-4.6,2.4-7.3c2.9,2.4,5.4,4.5,7.9,6.6c0,0,0,0.4-0.1,0.4
	C866.7,621.6,866.4,621.7,865.8,621.8z"/>
<path class="st17" d="M868.4,416.9c3.3,0.4,6.1,0.8,10,1.3c-3.6,2.3-6.3,4-10.1,6.4C868.2,421.5,868.1,419.2,868.4,416.9z"/>
<path class="st17" d="M379.2,867.8c0-3.1,0-5.9,0-9c2.4,0.8,4.5,1.4,7.4,2.3c-2.4,2.9-4.5,5.5-6.7,8c0,0-0.4-0.1-0.4-0.2
	C379.3,868.8,379.3,868.5,379.2,867.8z"/>
<path class="st1" d="M833.4,343.6c-6-0.7-7.5-5.1-8.5-10.3c1.6-6.2,5.2-9.1,10.8-9.3c5.4-0.2,8.7,2.6,11.3,9.6
	c-0.4,7.7-3.4,10.4-10.6,9.4c-1.1-1-1.7-1.9-2.6-3.2c1.9-0.6,3.2-1.1,4.6-1.4c1.4-0.4,2.9-0.6,4.4-0.8c-0.6-2-0.9-3.9-1.7-5.6
	c-1.7-3.7-4.8-4.4-8.3-3.1c-3.4,1.2-4.8,3.5-2.2,7c0.4,0,0.3,0.1,0.3,0.1C831.8,338.5,832.8,340.9,833.4,343.6z"/>
<path class="st17" d="M831,336c0.4-2.7,0.8-5.7,4.4-5.3c1.6,0.2,3,1.8,4.5,2.8c-1.3,1.1-2.4,2.7-3.9,3.1c-1.3,0.3-3-0.8-4.9-0.9
	C830.9,336,831,336,831,336z"/>
<path class="st14" d="M436,873.2c0.1-1.1,0.1-2.1,0.5-2.3c1.8-1,3.6-1.8,5.5-2.7c0,1.8,0.5,4-0.3,5.3
	C440.2,875.8,437.9,877.1,436,873.2z"/>
<path class="st1" d="M111.8,542.8c0.2-0.1,0.7,0.1,1,0.5C112.5,543.3,112.3,543.2,111.8,542.8z"/>
<path class="st16" d="M511.9,447c0,36.3,0,72.2,0,108c0,8-2,10-10,10c-15.7,0-15.7,0-15.7-15.8c0-17.3,0-34.7,0-52
	c0-7.1-2.1-9.2-9.2-9.2c-16.2-0.1-16.2-0.1-16.2,16.2c0,8.8,0.1,17.7,0,26.5c-0.1,5.9-2.4,8.2-8.1,8.3c-3.2,0.1-6.3,0.1-9.5,0
	c-5.4-0.1-8-2.6-8-8c-0.1-11.3,0-22.7,0-34c0-6.9-2-9-8.8-9c-2.7,0-5.3,0-8,0c-6,0.1-8.3,2.4-8.3,8.6c0,19.7,0,39.3,0,59
	c0,7.4-2.1,9.4-9.5,9.4c-2.3,0-4.7,0-7,0c-7.1,0-9.1-2.1-9.1-9.3c0-7,0-14,0-21c0-37.5,0-75,0-112.5c0-8.4,1.8-10.2,10.3-10.2
	c2,0,4,0,6,0c7.3,0,9.3,2.1,9.3,9.6c0,10.7,0,21.3,0,32c0,6,2.5,8.3,8.5,8.4c3.2,0,6.3-0.1,9.5,0c4.7,0.1,7,2.4,7.2,7.1
	c0.1,3.5,0,7,0,10.5c0.1,5.7,2.7,8.3,8.3,8.4c3,0.1,6,0.1,9,0c5.7-0.1,8.1-2.5,8.2-8.3c0.1-3.5-0.1-7,0.1-10.5
	c0.2-4.6,2.6-7,7.2-7.2c3.3-0.1,6.7,0,10,0c5.8-0.1,8.2-2.5,8.3-8.2c0.1-11,0-22,0-33c0-6.5,2.3-8.8,8.6-8.8c3,0,6,0,9,0
	c5.3,0.1,8,2.6,8,8C512,428.8,511.9,437.7,511.9,447z"/>
<path class="st18" d="M663.3,491c0-14.8,0-29.1,0-43.5c0-7.5,2.1-9.5,9.5-9.5c2.5,0,5,0,7.5,0c6.3-0.1,8.6-2.4,8.6-8.9
	c0-3.2-0.1-6.3,0-9.5c0.1-5,2.7-7.6,7.8-7.6c11.8-0.1,23.7-0.1,35.5,0c4.8,0,7.3,2.5,7.6,7.4c0.2,3.3,0,6.7,0.1,10
	c0.1,6.3,2.3,8.5,8.8,8.6c2.7,0,5.3,0,8,0c6.4,0,8.7,2.3,8.7,8.7c0,25,0,50,0,75c0,11.7,0,23.3,0,35c0,6.1-2.3,8.3-8.5,8.3
	c-2.8,0-5.7,0-8.5,0c-6.4-0.1-8.6-2.2-8.6-8.8c0-10.8,0-21.7,0-32.5c0-7.8-1.9-9.7-9.7-9.7c-10.7,0-21.3,0-32,0c-6.8,0-9,2.2-9,8.8
	c0,11.2,0,22.3,0,33.5c0,6.4-2.3,8.6-8.7,8.6c-2.7,0-5.3,0-8,0c-6.7,0-8.9-2.1-8.9-9C663.3,534.5,663.3,513,663.3,491 M688.9,459.5
	c0,7-0.1,14,0,21c0.1,4.8,2.6,7.5,7.4,7.5c12,0.1,23.9,0.1,35.9,0c4.6,0,7.3-2.6,7.4-7c0.2-12,0.2-23.9,0-35.9
	c-0.1-4.2-2.4-6.9-6.9-7c-12.3-0.1-24.6-0.1-36.9,0c-4.3,0.1-6.7,2.6-6.9,6.9C688.8,449.5,688.9,454,688.9,459.5z"/>
<path class="st18" d="M257.2,442.9c-0.2,29.9-0.2,59.4-0.2,88.9c0,4.5,2.6,7.2,7.1,7.2c12.2,0.1,24.3,0.1,36.5,0
	c4.7,0,6.9-3,7.1-7.4c0.2-3.8-0.1-7.7,0.1-11.5c0.2-4.6,2.6-6.9,7.3-7.1c3.8-0.1,7.7-0.1,11.5,0c4.1,0.2,6.5,2.4,6.7,6.5
	c0.2,4.2,0.2,8.3,0,12.5c-0.2,4.6-2.9,6.9-7.4,7c-3.3,0.1-6.7,0-10,0c-5.5,0.1-7.9,2.4-8,7.8c-0.1,3.5,0.1,7-0.1,10.5
	c-0.2,5.2-2.7,7.6-7.8,7.6c-11.7,0.1-23.3,0.1-35,0c-5.7,0-8-2.5-8.1-8.3c0-3.5,0.1-7-0.1-10.5c-0.2-4.5-2.6-7.1-7.3-7.2
	c-3,0-6,0-9,0c-7.2,0-9.3-2-9.3-9.2c0-23.3,0-46.6,0-70c0-4.7-0.1-9.3,0-14c0.1-5.5,2.6-7.8,8-7.9c3.5-0.1,7,0.1,10.5-0.1
	c4.4-0.2,6.7-2.7,7-6.9c0.2-3.7,0-7.3,0.1-11c0.1-5.4,2.6-8,7.9-8c20.2,0,40.3,0,60.5,0c5.4,0,8,2.5,8,7.9c0.1,12,0.1,24,0,36
	c0,5.1-2.6,7.7-7.6,7.9c-3.5,0.1-7,0.1-10.5,0c-4.8-0.2-7.3-2.7-7.5-7.5c-0.1-3.7,0.1-7.3-0.1-11c-0.3-4.9-2.8-7.3-7.7-7.3
	c-11.7-0.1-23.3-0.3-35,0.2C262.4,438.3,259.9,441,257.2,442.9z"/>
<path class="st15" d="M554.7,481.9c0-16,0-31.5,0-46.9c0-6.2,0.8-7,6.9-7c1.5,0,3,0,4.5,0c3.5,0,5-1.8,5.1-5.3
	c0.6-11.7,0.6-11.7,12.3-11.7c10.3,0,20.6,0,31,0c5.8,0,6.8,1,6.9,6.6c0.1,7-0.1,14,0,21c0.1,4.4-1.8,6.6-6.2,6.4
	c-1.7-0.1-3.3,0-5,0c-3.6,0-5.6-1.7-5.6-5.4c0-1.5,0-3,0-4.5c-0.1-5.8-1.3-6.9-7.1-7c-6.7,0-13.3,0.1-20,0c-4.5-0.1-6.3,2-6.3,6.3
	c0,17.8,0,35.6,0,53.4c0,4.4,2,6.3,6.4,6.3c7-0.1,14-0.1,21,0c4.3,0.1,6-2,6-6.1c0-0.3,0-0.7,0-1c-0.9-11.6,2.2-10,12.9-9.9
	c0.3,0,0.7,0.1,1,0.2c5,3.2,2.5,8.1,2.7,12.3c0.2,3.3-2.3,4.5-5.4,4.4c-0.5,0-1,0-1.5,0c-9.5,0.1-9.5,0.1-9.7,9.8
	c-0.1,6.1-1.2,7.2-7.3,7.2c-6.7,0-13.3-0.1-20,0c-4.5,0.1-6.4-2-6.2-6.3c0-0.3,0-0.7,0-1c-0.1-9.6-0.1-9.6-9.7-9.7
	c-5.9-0.1-6.7-0.8-6.8-6.6C554.7,485.8,554.7,484.1,554.7,481.9z"/>
<path class="st19" d="M576.1,651c8,0.9,9.9,2.5,10.9,9.8c-1-0.9-2.2-1.5-2.8-2.6c-2.3-4.2-5.9-5-10.2-4.2c-4.9,1-7.7,5.4-7.8,11.8
	c-0.1,6.4,2.6,11,7.3,12.3c5.9,1.6,10-1.2,11.4-8.2c-1.4-0.1-2.8-0.2-4.2-0.3c-1.3-0.1-2.5-0.3-3.8-0.5c0-0.5,0.1-1,0.1-1.5
	c3.4,0,6.9,0,10.7,0c0,3.7,0,7.9,0,13.1c-1.4-1.1-2.4-1.9-3.4-2.8c-5.1,3.8-10.8,4.4-15.4,1.1c-5.7-4.1-6.6-10.1-5.6-16.5
	C564.4,655.4,568.1,652.3,576.1,651z"/>
<path class="st2" d="M480,652c1,1,1.9,1.9,1.9,2.9c0.1,8.1,0.1,16.3,0.1,26.1c-2.3-1.8-4-2.6-5-4c-4.5-6.5-8.8-13.1-14-20.9
	c0,7.8,0.1,14.2-0.1,20.6c0,1.1-0.8,2.1-1.3,3.2c-0.6-1.1-1.6-2.2-1.6-3.3c-0.1-8.1-0.1-16.3-0.1-26.2c2.6,2.1,4.6,3,5.6,4.6
	c4.3,6.2,8.4,12.5,12.5,18.8c0.5-0.1,0.9-0.2,1.4-0.3C479.6,666.4,479.6,659.3,480,652z"/>
<path class="st19" d="M557.7,656.6c4.8,9.9,2.4,19.9-5.2,23.2c-6.6,2.9-14.1,0.6-17.4-5.2c-3.8-6.8-2.3-16.8,3.3-21
	C544.2,649.2,552,650.3,557.7,656.6 M555.3,673.5c0.5-1.4,1.2-2.7,1.5-4.2c1.5-7.5-1.6-13.9-7.4-15.4c-5.2-1.3-9.8,0.8-11.9,5.5
	c-2.8,6.2-1,14.5,3.8,17.5C545.6,679.8,550.6,678.7,555.3,673.5z"/>
<path class="st19" d="M512.6,671.1c-3.3,8.5-10.9,12-18.5,8.9c-6.9-2.8-10.1-12.1-7-20.5c2.5-7,10.3-10.3,17.6-7.6
	c5,1.9,7.6,5.8,8.2,10.9C513.3,665.4,512.9,668.1,512.6,671.1 M506.3,676c0.8-1,1.8-2,2.4-3.2c3.6-7.5,0.4-17.1-6.1-18.9
	c-4.7-1.3-9.3,0.4-11.6,4.4c-2.9,4.9-2.3,13,1.2,16.9C495.5,679,500.1,679.4,506.3,676z"/>
<path class="st20" d="M601.9,671.8c2.7,2.8,4.1,6.7,8.7,6.7c3.4-0.1,6.5-0.8,7.2-4.6c0.7-3.6-2-4.9-4.9-5.8c-2.5-0.8-5.5-1-7.5-2.5
	c-2-1.5-4.2-4.3-4.2-6.6c0-2.3,2-5.4,4.1-6.7c6.2-3.9,13.1-0.4,14.4,8.1c-0.9-0.8-1.8-1.6-2.8-2.3c-2-1.5-4-4.1-6.1-4.1
	c-2.2,0-5.5,1.8-6.5,3.7c-1.6,3.3,1.4,5,4.3,5.9c2.5,0.8,5.5,0.9,7.5,2.4c2.1,1.6,4.6,4.6,4.5,6.8c-0.1,2.5-2.5,5.9-4.8,7.2
	c-5.9,3.3-13.7-0.2-15.4-6.2C600.3,673.2,601.2,672.4,601.9,671.8z"/>
<path class="st20" d="M423.8,300.3c-7,4.4-8.8,14.1-4.1,20.2c4.2,5.6,12.3,4.6,15.4-1.8c0.6-1.2,1.7-2.2,3-2.9
	c-0.4,7.7-4.7,11.5-11.6,11.2c-7.2-0.3-12.2-5.9-12.5-14.1c-0.4-8.6,4.5-15.2,11.8-15.9c7-0.7,11.5,3,13.2,11.8
	c-1.7-1.1-3.3-1.5-3.5-2.4C433.7,300.6,429.7,299.2,423.8,300.3z"/>
<path class="st20" d="M423.5,678.7c-8.1,4.2-15.2,2.3-18.6-4.4c-4-8-1.4-18.6,5.5-22c6.2-3,16.2-1.3,16.6,10.2
	c-0.9-0.9-2.3-1.7-2.8-2.9c-1.5-4-4.2-5.8-8.3-5.8c-4.4,0.1-7.7,2.4-8.5,6.4c-0.8,3.9-0.6,8.3,0.3,12.1c0.9,3.8,4.3,5.7,8.4,5.7
	c4,0,6.5-1.8,8.1-5.5c0.5-1.2,1.7-2.2,2.6-3.2c0.6,0.4,1.2,0.9,1.8,1.3C426.9,673.3,425.4,675.9,423.5,678.7z"/>
<path class="st2" d="M443,308c0-3.5,0-6.5,0-10c3.3,0,6.4-0.1,9.5,0c3.9,0.1,8,0.6,9.2,5.2c1.2,4.5-0.9,7.6-4.1,9.1
	c2,4.4,4,8.6,5.9,12.7c-0.6,0.4-1.2,0.8-1.8,1.2c-0.8-0.9-2-1.7-2.3-2.7c-2.8-9.1-3.8-9.8-13.4-9.3c0,3.2,0.1,6.5-0.1,9.8
	c0,0.7-0.9,1.3-1.5,2c-0.5-0.7-1.4-1.3-1.4-2C442.9,318.8,443,313.7,443,308 M453.8,300.5c-2.5,0-4.9,0-7.4,0c0,3.9,0,7.4,0,11.3
	c3-0.3,6,0.1,8.2-1c1.9-0.9,3.7-3.2,4.3-5.3C459.6,302.7,457.5,301,453.8,300.5z"/>
<path class="st19" d="M498.5,298.2c1.7,0.8,3.9,1.5,4.4,2.8c3.2,8,6,16.2,9.4,25.4c-6-1-4.3-6.7-7.3-9.2c-3.1,0-6.8,0-10.4,0
	c-2.4,2.6-1.3,7.7-7.1,9.6C491.3,316.5,494.7,307.5,498.5,298.2 M499.5,302.7c-1.4,3.7-2.7,7.4-4.2,11.3c3.4,0,6.1,0,9.4,0
	C503.1,309.9,501.7,306.4,499.5,302.7z"/>
<path class="st17" d="M453.7,679.5c-1.1-0.4-2.5-1.2-2.6-2.1c-0.3-3.3-0.1-6.6-0.1-10.2c-5,0-9.7,0-14.9,0c0,4.1,0,8.2,0,12.3
	c-0.5,0.2-1,0.4-1.5,0.6c-0.5-0.9-1.5-1.8-1.6-2.7c-0.1-8.3-0.1-16.6-0.1-24.9c3,0.2,3,0.2,3,4.5c0,2.3,0,4.6,0,7.2c5,0,9.7,0,15,0
	c0-2.9-0.2-5.7,0.1-8.4c0.1-1.3,1-2.6,1.6-3.8c0.4,1.2,1.3,2.4,1.3,3.6C454,663.5,454,671.3,453.7,679.5z"/>
<path class="st20" d="M556.4,320.5c-0.5,1.3-0.7,2.4-1.2,3.1c-0.7,0.9-1.7,2.3-2.6,2.2c-0.9-0.1-2.1-1.4-2.5-2.4
	c-3.1-8.2-6.1-16.5-8.2-25.8c1.1,1,2.6,1.8,3.1,3c2.6,6.7,5,13.5,7.6,20.8c3.5-8.2,6.7-15.8,10-23.4c0.1-0.1,0.9,0.1,2,0.2
	C561.9,305.7,559.2,312.9,556.4,320.5z"/>
<path class="st17" d="M387,672.9c0.1,1.7,0.1,3,0.3,5.1c5.5,0,10.8,0,16,0c0,0.5,0,0.9,0,1.4c-6.2,0-12.4,0-19,0
	c0-8.6,0-17.7,0-27.1c5.9,0,11.9,0,17.9,0c0.1,0.5,0.1,1.1,0.2,1.6c-4.9,0.2-9.8,0.5-15.1,0.7c0,2.9,0,5.8,0,9.1
	c3.2,0.2,6.5,0.4,9.8,0.5c0,0.5,0.1,1.1,0.1,1.6c-3.2,0.3-6.3,0.5-10.2,0.9C387,668.6,387,670.5,387,672.9z"/>
<path class="st17" d="M582,323.6c2.1,0.2,3.7,0.4,5.4,0.5c0,0.4-0.1,0.9-0.1,1.3c-6.3,0-12.5,0-19,0c0-8.9,0-17.9,0-27
	c6.1,0,12,0,18,0c0,0.4,0.1,0.9,0.1,1.3c-4.9,0-9.8,0-15,0c0,3.8,0,6.7,0,10.3c3.1,0,6.4,0,9.7,0c0,0.6,0.1,1.2,0.1,1.8
	c-3.2,0.3-6.3,0.5-9.9,0.8c0,3.4,0,6.8,0,10.8C574.6,323.6,578.1,323.6,582,323.6z"/>
<path class="st17" d="M474.3,323.6c4.3,0,8.1,0,12,0c0,0.6,0,1.2,0.1,1.7c-6.2,0-12.4,0-18.9,0c0-8.5,0-17.7,0-26.8
	c6,0,11.9,0,17.9,0c0,0.5,0.1,1,0.1,1.5c-5,0-10,0-15.1,0c0,3.8,0,6.6,0,10.1c3.2,0,6.6,0,9.9,0c0.1,0.7,0.1,1.3,0.2,2
	c-3.3,0.2-6.6,0.5-11,0.8C472.3,316.2,465.6,322.3,474.3,323.6z"/>
<path class="st17" d="M513.9,300.4c-1.7-0.2-2.9-0.5-4.1-0.7c0.1-0.4,0.1-0.9,0.2-1.3c7,0,14,0,21.1,0c0.1,0.5,0.1,1,0.2,1.5
	c-2.8,0.2-5.6,0.5-9.2,0.8c0,6.5,0,13,0,19.5c0,1.2,0.2,2.4-0.1,3.5c-0.2,0.8-1.1,1.5-1.7,2.2c-0.4-0.7-1.2-1.5-1.2-2.2
	c-0.1-6.6,0-13.3-0.1-19.9c0-1-0.1-1.9-0.2-3.2C517.2,300.6,515.8,300.5,513.9,300.4z"/>
<path class="st17" d="M636.9,652c2.4,0,4.3,0,6.2,0c0,0.6,0.1,1.3,0.1,1.9c-2.8,0.2-5.7,0.5-8.7,0.8c-0.5,8.4-0.9,16.8-1.5,25.2
	c0,0-0.9,0-1.8,0c0-8.3,0-16.6,0-25.2c-3.3-0.2-6.3-0.4-9.3-0.6c0-0.7,0-1.4-0.1-2.1C626.7,652,631.6,652,636.9,652z"/>
<path class="st17" d="M371.1,655.5c-0.1,7.4-0.1,14.4-0.2,21.3c0,1-0.8,2.1-1.3,3.1c-0.6-1.1-1.6-2.2-1.6-3.3
	c-0.1-7.3-0.1-14.5-0.1-22c-3.3-0.2-6.2-0.4-9.2-0.6c0-0.5,0.1-1,0.1-1.4c7,0,14,0,21.1,0c0.1,0.4,0.1,0.8,0.2,1.2
	C377.2,654.2,374.2,654.6,371.1,655.5z"/>
<path class="st15" d="M517,664c0-3.5-0.1-6.5,0.1-9.5c0.1-1,1-1.9,1.5-2.9c0.4,0.1,0.8,0.3,1.2,0.4c0,8.2,0,16.5,0,25.7
	c4.9,0,9.4,0,13.9,0c0,0.5,0,1.1,0,1.6c-5.4,0-10.8,0-16.8,0C517,674.7,517,669.6,517,664z"/>
<path class="st17" d="M535,316c0-5.3-0.1-10.1,0.1-14.9c0-1,0.9-2,1.3-3.1c0.5,0.9,1.5,1.9,1.5,2.8c0.1,7.4,0.1,14.9,0,22.3
	c0,0.9-1,1.9-1.6,2.8c-0.5-1-1.2-2-1.3-3.1C534.9,320.8,535,318.6,535,316z"/>
<path class="st17" d="M593,668c0-4.8-0.1-9.1,0.1-13.4c0-0.9,0.9-1.7,1.3-2.6c0.5,0.8,1.5,1.5,1.5,2.3c0.1,7.8,0.1,15.5,0,23.3
	c0,0.8-1,1.5-1.5,2.3c-0.5-0.9-1.3-1.7-1.3-2.6C592.9,674.4,593,671.5,593,668z"/>
<path class="st21" d="M688.9,459c0-5-0.1-9.5,0-14c0.1-4.3,2.6-6.9,6.9-6.9c12.3-0.2,24.6-0.1,36.9,0c4.4,0,6.8,2.8,6.9,7
	c0.2,12,0.2,23.9,0,35.9c-0.1,4.4-2.7,7-7.4,7c-12,0-23.9,0.1-35.9,0c-4.8,0-7.3-2.7-7.4-7.5C688.9,473.5,688.9,466.5,688.9,459z"/>
<path class="st10" d="M555.1,673.9c-4.5,4.9-9.5,5.9-13.9,3.1c-4.8-3-6.6-11.3-3.8-17.5c2.1-4.7,6.8-6.8,11.9-5.5
	c5.7,1.5,8.9,7.9,7.4,15.4C556.5,670.8,555.8,672.1,555.1,673.9z"/>
<path class="st10" d="M506,676.3c-6,3.1-10.5,2.7-13.8-1c-3.5-3.8-4-11.9-1.2-16.9c2.3-4,6.9-5.7,11.6-4.4
	c6.5,1.8,9.7,11.4,6.1,18.9C508.1,674,507.1,674.9,506,676.3z"/>
<path class="st7" d="M454.2,300.6c3.4,0.4,5.4,2.1,4.7,5c-0.5,2-2.4,4.4-4.3,5.3c-2.2,1.1-5.2,0.7-8.2,1c0-3.9,0-7.4,0-11.3
	C448.8,300.5,451.3,300.5,454.2,300.6z"/>
<path class="st3" d="M499.9,302.8c1.8,3.6,3.2,7.1,4.8,11.3c-3.2,0-6,0-9.4,0C496.8,310.1,498.1,306.4,499.9,302.8z"/>
</svg>
